<svg xmlns="http://www.w3.org/2000/svg" xmlns:xlink="http://www.w3.org/1999/xlink" xmlns:lucid="lucid" width="1360" height="1760"><g transform="translate(0 0)" lucid:page-tab-id="0_0"><path d="M0 0h1360v1760H0z" fill="#fff"/><path d="M419.87 733.2h444.48v435.38H419.87z" stroke="#5a6c86" stroke-width="2" fill="#fff"/><path d="M419.87 733.2h56v56h-56v-56z" stroke="#fff" stroke-opacity="0" fill="#5a6c86"/><path d="M460.37 754.4h-5.85V742c0-.44-.38-.8-.8-.8h-11.7c-.43 0-.8.36-.8.8v12.4h-5.85c-.45 0-.8.36-.8.8v25.2c0 .44.35.8.8.8h25c.45 0 .8-.36.8-.8v-25.2c0-.44-.35-.8-.8-.8zm-.8 25.2h-23.4V756h5.85c.45 0 .8-.36.8-.8v-12.4h10.1v12.4c0 .44.35.8.8.8h5.85z" stroke="#fff" stroke-opacity="0" fill="#fff"/><path d="M439.68 759.3h1.6v4.15h-1.6v-4.16zM439.68 765.97h1.6v4.16h-1.6v-4.16zM439.68 772.64h1.6v4.16h-1.6v-4.16zM447.18 759.3h1.6v4.15h-1.6v-4.16zM447.18 765.97h1.6v4.16h-1.6v-4.16zM447.18 772.64h1.6v4.16h-1.6v-4.16zM454.68 759.3h1.6v4.15h-1.6v-4.16zM454.68 765.97h1.6v4.16h-1.6v-4.16zM454.68 772.64h1.6v4.16h-1.6v-4.16zM447.18 746.5h1.6v4.15h-1.6v-4.16zM447.18 753.17h1.6v4.16h-1.6v-4.16z" stroke="#fff" stroke-opacity="0" fill="#fff"/><use xlink:href="#a" transform="matrix(1,0,0,1,490.86813653754325,753.1976684123033) translate(0 12.444444444444446)"/><use xlink:href="#b" transform="matrix(1,0,0,1,490.86813653754325,753.1976684123033) translate(69.00617283950618 12.444444444444446)"/><path d="M595.83 353.48h92.56v92.55h-92.57v-92.55z" stroke="#fff" stroke-opacity="0" stroke-width="2" fill="#3f8624"/><path d="M663.23 385.67c-.5-3.86-2.6-6.67-5.68-7.6-2.34-.74-4.7-.3-6.67 1.2-.92-2.06-2.1-3.66-3.7-5.26-3.1-3.14-6.8-4.74-11.24-4.86-8.95-.23-16.42 6.9-16.67 15.9v.9c-5 1.4-8.27 5.92-8.02 11.1v.86c.37 5.42 4.5 9.67 9.88 10.2v-2.44c-4.08-.6-7.1-3.82-7.4-7.95v-.66c0-6.2 4.43-8.22 7.1-8.92.67-.12 1.1-.7 1.04-1.36-.07-.63-.13-1.13-.13-1.72.25-7.64 6.6-13.64 14.2-13.4 3.77.1 6.92 1.48 9.5 4.17 1.8 1.84 3.04 3.75 3.84 6.16.25.67 1 .98 1.6.74.25-.07.37-.23.56-.42 1.23-1.76 3.4-2.5 5.43-1.87 2.35.75 3.83 3.04 4.02 6.32.05.58.42 1 .97 1.13 5.75 1.17 8.65 4.28 8.65 9.23s-2.47 7.87-7.4 8.46V408c6.4-.63 9.87-4.45 9.87-10.96-.08-5.8-3.53-9.9-9.77-11.37z" stroke="#fff" stroke-opacity="0" stroke-width="2" fill="#fff"/><path d="M659.38 430.35h-6.2c-.65 0-1.2-.55-1.2-1.22v-30.1c-3.08-1.68-6.04-2.44-9.52-2.48-3.78.04-7 .92-10.26 2.82v29.76c0 .67-.55 1.22-1.22 1.22h-6.18c-.67 0-1.22-.55-1.22-1.22v-33.6c0-.37.14-.66.4-.9 4.56-4 11.3-6.32 18.5-6.32 6.64-.12 12.34 1.7 17.64 5.64.33.26.48.6.48.97v34.23c0 .67-.56 1.22-1.22 1.22zm-4.97-2.48h3.72v-32.33c-4.78-3.36-9.8-4.88-15.66-4.75-6.2-.18-11.52 1.55-16.4 5.33v31.74h3.7v-29.22c-.04-.46.18-.84.55-1.05 3.86-2.35 7.68-3.45 12.16-3.53 4.14.04 7.66 1.05 11.25 3.1.46.22.7.6.7 1.1z" stroke="#fff" stroke-opacity="0" stroke-width="2" fill="#fff"/><use xlink:href="#c" transform="matrix(1,0,0,1,565.8346139367748,455.0328684192394) translate(42.638888888888886 16)"/><path d="M495.5 951.28h161.9v90H495.5z" stroke="#000" stroke-opacity="0" stroke-width="4" fill="#fff" fill-opacity="0"/><use xlink:href="#d" transform="matrix(1,0,0,1,500.51437613201705,956.2802250083967) translate(-4.802469135802468 44.44444444444444)"/><path d="M588.87 935.3c-6.98 0-14.18-1.4-18.02-4.26v36.33c0 4.45 8.1 8.07 18.02 8.07s18.03-3.62 18.03-8.07v-36.33c-3.85 2.7-11.04 4.26-18.03 4.26z" stroke="#000" stroke-opacity="0" fill="#2a3282"/><path d="M606.9 926.04c0-3.62-8.1-6.5-18.03-6.5-9.9 0-18.02 2.88-18.02 6.5 0 3.6 8.1 6.58 18.02 6.58s18.03-2.97 18.03-6.58z" stroke="#000" stroke-opacity="0" fill="#2a3282"/><path d="M566.3 952.9v-26.86c0-6.12 7.2-9.46 15.8-10.57V887.3c0-2.5-2.03-4.55-4.54-4.55H541.5c-2.43 0-4.46 2.04-4.46 4.54v87.95h34.23c-3.14-2.32-4.96-5-4.96-8.16v-.84h-22.48v-4.54h22.5v-4.54h-22.5v-4.45h22.5v.18zm-22.48-56.34h31.5V901h-31.5v-4.44z" stroke="#000" stroke-opacity="0" fill="#2a3282"/><path d="M633.76 972.68h161.9v46.34h-161.9z" stroke="#000" stroke-opacity="0" stroke-width="4" fill="#fff" fill-opacity="0"/><use xlink:href="#e" transform="matrix(1,0,0,1,638.7629443819379,977.6831144571328) translate(24.179012345679006 22.40277777777778)"/><path d="M721.22 880h-36.18c-2.48 0-4.56 2.04-4.56 4.55v88.3h24.9v-9h-18.1v-4.54h18.1v-4.54h-18.1v-4.55h18.1V934.43h20.33v-49.87c0-2.5-2-4.55-4.48-4.55zm-2.32 18.1h-31.62v-4.54h31.62v4.55z" stroke="#000" stroke-opacity="0" fill="#2a3282"/><path d="M708.5 937.76v35.1h52.02v-35.1H708.5zm49.53 32.4h-47.46V945.2h47.54v24.97h-.07z" stroke="#000" stroke-opacity="0" fill="#2a3282"/><path d="M730.9 949.74h-15.84v15.88h15.84v-15.88zM753.55 963.4H736.6v2.22h16.95v-2.23zM753.55 958.84H736.6v2.23h16.95v-2.23zM753.55 954.3H736.6v2.22h16.95v-2.23zM753.55 949.74H736.6v2.32h16.95v-2.32z" stroke="#000" stroke-opacity="0" fill="#2a3282"/><path d="M355.2 412.55h-88.67c-1.02 0-1.95-.87-1.95-1.96v-5.94c0-21.03 13.8-38.67 34.15-43.62.56-.1 1.02-.05 1.5.2 6.83 3.72 14.42 3.72 21.27 0 .47-.25.93-.3 1.4-.2 20.44 4.95 34.24 22.6 34.24 43.62v5.93c0 1.08-.93 1.95-1.95 1.95zm-86.64-3.97h84.6v-3.92c.1-18.92-12.22-34.8-30.45-39.54-3.88 1.9-7.5 2.78-11.84 2.78-4.35 0-7.96-.83-11.85-2.78-18.22 4.74-30.53 20.62-30.44 39.54z" stroke="#fff" stroke-opacity="0"/><path d="M310.87 367.78c-4.25 0-7.9-.9-11.6-2.96-11.53-6.45-15.64-21.07-9.2-32.6 6.46-11.5 21.04-15.6 32.5-9.16 7.8 4.35 12.23 11.94 12.23 20.88 0 8.98-4.53 16.63-12.42 20.88-3.72 2-7.3 2.96-11.5 2.96zm0-43.77c-7.65-.18-14.2 3.7-17.87 10.38-5.2 9.7-1.63 21.74 8.03 27 6.25 3.4 13.13 3.4 19.4 0 6.6-3.6 10.4-10.04 10.36-17.6-.06-10.97-9-19.8-19.93-19.77z" stroke="#fff" stroke-opacity="0"/><use xlink:href="#f" transform="matrix(1,0,0,1,234.58239030662594,421.55266906952) translate(8.78395061728395 17.77777777777778)"/><use xlink:href="#g" transform="matrix(1,0,0,1,234.58239030662594,421.55266906952) translate(86.31481481481481 17.77777777777778)"/><path d="M589.6 80h126.3v126.28H589.6V80z" stroke="#fff" stroke-opacity="0" stroke-width="2" fill="#d86613"/><path d="M689.8 130.64v34.4l-30.33 17.5V169.5l16.85-9.7c.97-.57 1.52-1.4 1.67-2.46.03-.5.03-.87 0-1.3v-19.2l11.8-6.76m2.38-5.02c-.2 0-.34 0-.48.13l-16.12 9.27c-.3.18-.92.5-.92.87v21.5l-18.04 10.4c-.3.2-.48.5-.48.9v18.48c0 .56.44 1 1 1 .18 0 .33-.06.48-.12l35.08-20.2c.3-.18.48-.5.48-.87v-40.5-.05c0-.5-.45-.94-1-.94z" stroke="#fff" stroke-opacity="0" stroke-width="2" fill="#fff"/><path d="M650.1 189.34c-.47 0-.94-.1-1.34-.37l-35.07-20.15c-.88-.55-1.36-1.4-1.36-2.3v-44.65c0-1.02.48-1.85 1.35-2.3l38.54-22.3c.87-.45 1.8-.45 2.68 0L690 117.53c.87.47 1.34 1.3 1.34 2.32 0 .92-.47 1.75-1.34 2.3l-37.2 21.54v42.98c0 1-.56 1.85-1.35 2.3-.48.3-.87.38-1.35.38zm-34.36-23.3l33.65 19.42V143.3c0-1 .47-1.84 1.34-2.4l36.5-21.06-33.66-19.4-37.84 21.9zm37.52-65.8zm.72 0z" stroke="#fff" stroke-opacity="0" stroke-width="2" fill="#fff"/><use xlink:href="#h" transform="matrix(1,0,0,1,559.6132893907043,215.27633453475994) translate(22.635802469135797 17.77777777777778)"/><use xlink:href="#i" transform="matrix(1,0,0,1,559.6132893907043,215.27633453475994) translate(80.53703703703704 17.77777777777778)"/><path d="M488.58 40h307.07v260H488.58z" fill="#fff" fill-opacity="0"/><path d="M511.6 40h15.36m15.35 0h15.37m15.35 0h15.35m15.36 0h15.35m15.35 0h15.36m15.34 0h15.35m15.35 0h15.35m15.35 0h15.36m15.36 0h15.36m15.35 0h7.68v8.12m0 16.25v16.25m0 16.25v16.25m0 16.25v16.25m0 16.25v16.25m0 16.25v16.25m0 16.25v16.25m0 16.25v16.25m0 16.25V300h-7.68m-15.35 0h-15.36m-15.35 0h-15.35m-15.35 0h-15.35m-15.36 0h-15.36m-15.35 0h-15.37m-15.35 0h-15.35m-15.36 0h-15.35m-15.35 0H542.3m-15.34 0H511.6m-15.35 0h-7.67v-8.12m0-16.25v-16.25m0-16.25v-16.25m0-16.25v-16.25m0-16.25v-16.25m0-16.25v-16.25m0-16.25V96.88m0-16.25V64.38m0-16.25V40h7.67" stroke="#5a6c86" stroke-width="4" fill="none"/><use xlink:href="#j" transform="matrix(1,0,0,1,488.57668200967987,60) translate(67.47222222222223 16)"/><use xlink:href="#k" transform="matrix(1,0,0,1,488.57668200967987,60) translate(120.63888888888889 16)"/><use xlink:href="#l" transform="matrix(1,0,0,1,488.57668200967987,60) translate(184.97222222222223 16)"/><path d="M1090.6 412.55h-88.66c-1 0-1.94-.87-1.94-1.96v-5.94c0-21.03 13.8-38.67 34.15-43.62.56-.1 1.02-.05 1.48.2 6.85 3.72 14.44 3.72 21.3 0 .45-.25.92-.3 1.38-.2 20.46 4.95 34.25 22.6 34.25 43.62v5.93c0 1.08-.92 1.95-1.94 1.95zm-86.62-3.97h84.6v-3.92c.1-18.92-12.22-34.8-30.46-39.54-3.88 1.9-7.5 2.78-11.84 2.78-4.35 0-7.96-.83-11.85-2.78-18.23 4.74-30.54 20.62-30.45 39.54z" stroke="#fff" stroke-opacity="0" fill="#693cc5"/><path d="M1046.3 367.78c-4.27 0-7.9-.9-11.62-2.96-11.52-6.45-15.63-21.07-9.18-32.6 6.45-11.5 21.02-15.6 32.5-9.16 7.78 4.35 12.22 11.94 12.22 20.88 0 8.98-4.54 16.63-12.42 20.88-3.73 2-7.3 2.96-11.5 2.96zm0-43.77c-7.66-.18-14.2 3.7-17.88 10.38-5.2 9.7-1.63 21.74 8.02 27 6.26 3.4 13.14 3.4 19.4 0 6.6-3.6 10.42-10.04 10.37-17.6-.04-10.97-8.97-19.8-19.9-19.77z" stroke="#fff" stroke-opacity="0" fill="#693cc5"/><use xlink:href="#m" transform="matrix(1,0,0,1,970,421.55266906952) translate(18.598765432098773 17.77777777777778)"/><use xlink:href="#n" transform="matrix(1,0,0,1,970,421.55266906952) translate(87.61111111111111 17.77777777777778)"/><path d="M642.1 303v31.98" stroke="#666" stroke-width="2" fill="none"/><path d="M643.1 303.03h-2V302h2z" fill="#666"/><path d="M642.1 350.24l-4.62-14.26h9.27z" stroke="#666" stroke-width="2" fill="#666"/><path d="M452.08 801.08h382.84v338.96H452.08z" fill="#fff" fill-opacity="0"/><path d="M476 801.08h15.96m15.95 0h15.96m15.95 0h15.96m15.96 0h15.95m15.95 0h15.95m15.95 0h15.96m15.95 0h15.95m15.95 0h15.95m15.96 0h15.95m15.94 0h15.95m15.94 0H811m15.95 0h7.97v7.7m0 15.4v15.42m0 15.4v15.4m0 15.42v15.4m0 15.42v15.4m0 15.4v15.42m0 15.4v15.4m0 15.42v15.4m0 15.42v15.4m0 15.4v15.42m0 15.4v15.4m0 15.42v7.7h-7.97m-15.95 0h-15.96m-15.95 0h-15.96m-15.95 0h-15.96m-15.96 0h-15.95m-15.95 0h-15.95m-15.95 0h-15.96m-15.95 0h-15.95m-15.95 0h-15.95m-15.96 0H539.8m-15.94 0H507.9m-15.94 0H476m-15.95 0h-7.97v-7.7m0-15.4v-15.4m0-15.42v-15.4m0-15.42v-15.4m0-15.4v-15.42m0-15.4v-15.4m0-15.42v-15.4m0-15.42v-15.4m0-15.4V885.8m0-15.4V855m0-15.42v-15.4m0-15.42v-7.7h7.97" stroke="#5a6c86" stroke-width="4" fill="none"/><path d="M393.8 1641.52c-44.7 0-91.98-12.37-91.98-35.16V1434.2c0-22.8 47.28-35.15 92-35.15 44.5 0 91.97 12.36 91.97 35.15v172.16c0 22.8-47.47 35.16-92 35.16zm0-232.05c-50.6 0-81.68 14.3-81.68 24.73v172.16c0 10.18 30.9 24.73 81.7 24.73 50.76 0 81.67-14.32 81.67-24.74V1434.2c0-10.42-31.1-24.73-81.7-24.73z" stroke="#fff" stroke-opacity="0" fill="#232f3e"/><path d="M393.8 1464.3c-44.7 0-91.98-12.33-91.98-35.23h10.3c0 10.33 30.9 24.9 81.7 24.9 50.76 0 81.67-14.47 81.67-24.9h10.3c0 22.9-47.47 35.24-92 35.24z" stroke="#fff" stroke-opacity="0" fill="#232f3e"/><use xlink:href="#o" transform="matrix(1,0,0,1,271.8183821212812,1650.516259478199) translate(22.092592592592595 17.77777777777778)"/><use xlink:href="#p" transform="matrix(1,0,0,1,271.8183821212812,1650.516259478199) translate(126.9074074074074 17.77777777777778)"/><path d="M397.58 1549.28l-17.24-9.96v-19.9l17.24-9.96 17.24 9.95v19.92zm-14.06-11.8l14.06 8.14 14.07-8.13v-16.26l-14.07-8.12-14.06 8.12z" stroke="#fff" stroke-opacity="0" fill="#2a3282"/><path d="M397.58 1564.57l-30.5-17.6v-35.2l30.5-17.6 30.5 17.6v35.2zm-27.32-19.43l27.32 15.76 27.32-15.76v-31.54l-27.32-15.77-27.32 15.77z" stroke="#fff" stroke-opacity="0" fill="#2a3282"/><path d="M396.78 1528l28.9-16.68 1.58 2.76-28.9 16.67-1.58-2.76z" stroke="#fff" stroke-opacity="0" stroke-width=".87" fill="#2a3282"/><path d="M367.96 1513.96l1.6-2.77 29 16.68-1.58 2.76-29.02-16.68z" stroke="#fff" stroke-opacity="0" stroke-width=".5" fill="#2a3282"/><path d="M396 1529.37h3.17v33.37H396v-33.37z" stroke="#fff" stroke-opacity="0" fill="#2a3282"/><use xlink:href="#q" transform="matrix(1,0,0,1,337.0932754627315,1573.5651761344177) translate(14.234567901234563 17.77777777777778)"/><use xlink:href="#r" transform="matrix(1,0,0,1,337.0932754627315,1573.5651761344177) translate(37.074074074074076 44.44444444444444)"/><path d="M200 276.28h214.17v180H200z" fill="#fff" fill-opacity="0"/><path d="M222.95 276.28h15.3m15.3 0h15.3m15.3 0h15.3m15.3 0h15.28m15.3 0h15.3m15.3 0h15.3m15.3 0h7.64v7.5m0 15v15m0 15v15m0 15v15m0 15v15m0 15v15m0 15v7.5h-7.65m-15.3 0h-15.3m-15.3 0h-15.3m-15.3 0h-15.28m-15.3 0h-15.3m-15.3 0h-15.3m-15.3 0h-15.3m-15.3 0H200v-7.5m0-15v-15m0-15v-15m0-15v-15m0-15v-15m0-15v-15m0-15v-7.5h7.65" stroke="#3f8624" stroke-width="4" fill="none"/><path d="M936.28 276.28h220v180h-220z" fill="#fff" fill-opacity="0"/><path d="M959.85 276.28h15.7m15.73 0h15.7m15.72 0h15.72m15.7 0h15.73m15.7 0h15.73m15.7 0h15.72m15.72 0h7.86v7.5m0 15v15m0 15v15m0 15v15m0 15v15m0 15v15m0 15v7.5h-7.86m-15.72 0H1117m-15.72 0h-15.72m-15.7 0h-15.73m-15.7 0h-15.73m-15.7 0h-15.72m-15.72 0h-15.7m-15.73 0h-7.85v-7.5m0-15v-15m0-15v-15m0-15v-15m0-15v-15m0-15v-15m0-15v-7.5h7.85" stroke="#693cc5" stroke-width="4" fill="none"/><path d="M976.28 560h140v60h-140z" fill="#fff" fill-opacity="0"/><path d="M987.94 560h7.78m7.78 0h7.78m7.77 0h7.78m7.78 0h7.8m7.77 0h7.77m7.78 0h7.78m7.78 0h7.77m7.78 0h7.78m7.8 0h3.88v3.75m0 7.5v7.5m0 7.5v7.5m0 7.5v7.5m0 7.5V620h-3.9m-7.77 0h-7.77m-7.78 0h-7.77m-7.78 0h-7.78m-7.78 0h-7.77m-7.78 0h-7.8m-7.77 0h-7.78m-7.77 0h-7.78m-7.78 0h-7.78m-7.77 0h-3.9v-3.75m0-7.5v-7.5m0-7.5v-7.5m0-7.5v-7.5m0-7.5V560h3.9" stroke="#666" stroke-width="2" fill="none"/><use xlink:href="#s" transform="matrix(1,0,0,1,976.27633453476,580) translate(8.364197530864203 17.77777777777778)"/><use xlink:href="#t" transform="matrix(1,0,0,1,976.27633453476,580) translate(77.37654320987654 17.77777777777778)"/><path d="M594.83 399.76H518c-6.62 0-12-5.38-12-12v-9.48c0-6.63-5.37-12-12-12h-59.32" stroke="#666" stroke-width="2" fill="none"/><path d="M595.83 400.76h-1.02v-2h1.03z" fill="#666"/><path d="M419.4 366.28l14.28-4.64v9.27z" stroke="#666" stroke-width="2" fill="#666"/><path d="M689.4 399.76h109.93c6.63 0 12-5.38 12-12v-9.48c0-6.63 5.37-12 12-12h92.44" stroke="#666" stroke-width="2" fill="none"/><path d="M689.4 400.76h-1v-2h1z" fill="#666"/><path d="M931.04 366.28l-14.27 4.63v-9.26z" stroke="#666" stroke-width="2" fill="#666"/><path d="M1046.28 459.28v81.22" stroke="#666" stroke-width="2" fill="none"/><path d="M1047.28 459.3h-2v-1.02h2z" fill="#666"/><path d="M1046.28 555.76l-4.64-14.26h9.27z" stroke="#666" stroke-width="2" fill="#666"/><path d="M331.27 459.28v479.6c0 6.64 5.37 12 12 12h57.1" stroke="#666" stroke-width="2" fill="none"/><path d="M332.27 459.3h-2v-1.02h2z" fill="#666"/><path d="M415.63 950.9l-14.26 4.62v-9.27z" stroke="#666" stroke-width="2" fill="#666"/><path d="M642.1 731.2V607.24c0-6.63-5.36-12-12-12H371.55c-6.63 0-12-5.38-12-12V476.78" stroke="#666" stroke-width="2" fill="none"/><path d="M643.1 732.2h-2v-1.03h2z" fill="#666"/><path d="M359.54 461.5l4.63 14.28h-9.27z" stroke="#666" stroke-width="2" fill="#666"/><path d="M240 658.6h98.98v182.8H240z" stroke="#000" stroke-opacity="0" stroke-width="4" fill="#fff" fill-opacity="0"/><use xlink:href="#u" transform="matrix(1,0,0,1,245,663.6) translate(-6.900000000000006 14.500000000000009)"/><use xlink:href="#v" transform="matrix(1,0,0,1,245,663.6) translate(5.524999999999999 36.10000000000001)"/><use xlink:href="#w" transform="matrix(1,0,0,1,245,663.6) translate(54.475 36.10000000000001)"/><use xlink:href="#x" transform="matrix(1,0,0,1,245,663.6) translate(26.55 57.70000000000001)"/><use xlink:href="#y" transform="matrix(1,0,0,1,245,663.6) translate(5 79.30000000000003)"/><use xlink:href="#z" transform="matrix(1,0,0,1,245,663.6) translate(59 79.30000000000003)"/><use xlink:href="#A" transform="matrix(1,0,0,1,245,663.6) translate(17.5 100.90000000000002)"/><use xlink:href="#B" transform="matrix(1,0,0,1,245,663.6) translate(16.5 122.50000000000001)"/><use xlink:href="#C" transform="matrix(1,0,0,1,245,663.6) translate(13.024999999999999 144.1)"/><use xlink:href="#D" transform="matrix(1,0,0,1,245,663.6) translate(13.024999999999999 165.70000000000002)"/><path d="M364.5 560H500v80.5H364.5z" stroke="#000" stroke-opacity="0" stroke-width="4" fill="#fff" fill-opacity="0"/><use xlink:href="#E" transform="matrix(1,0,0,1,369.48562386798307,565) translate(4.5 27.7125)"/><use xlink:href="#F" transform="matrix(1,0,0,1,369.48562386798307,565) translate(44.5 27.7125)"/><use xlink:href="#G" transform="matrix(1,0,0,1,369.48562386798307,565) translate(83.5 27.7125)"/><use xlink:href="#H" transform="matrix(1,0,0,1,369.48562386798307,565) translate(31.025 49.3125)"/><use xlink:href="#I" transform="matrix(1,0,0,1,369.48562386798307,565) translate(51.025 49.3125)"/><path d="M220 1350.42h355.65v340H220z" fill="#fff" fill-opacity="0"/><path d="M244.25 1350.42h16.16m16.18 0h16.17m16.16 0h16.18m16.16 0h16.17m16.17 0h16.17m16.17 0h16.17m16.17 0h16.16m16.17 0h16.16m16.17 0h16.17m16.16 0h16.17m16.16 0h8.1v7.73m0 15.45v15.46m0 15.45v15.47m0 15.45v15.46m0 15.45v15.45m0 15.46v15.45m0 15.45v15.45m0 15.46v15.45m0 15.47v15.45m0 15.46v15.45m0 15.45v15.46m0 15.45v7.72h-8.1m-16.16 0h-16.17m-16.16 0H502.9m-16.17 0h-16.16m-16.17 0h-16.16m-16.17 0H405.9m-16.16 0h-16.17m-16.16 0h-16.16m-16.16 0H308.9m-16.15 0h-16.17m-16.17 0h-16.15m-16.17 0H220v-7.73m0-15.46v-15.46m0-15.45v-15.45m0-15.46v-15.45m0-15.46v-15.44m0-15.46v-15.45m0-15.46v-15.46m0-15.46v-15.45m0-15.45v-15.46m0-15.45v-15.46m0-15.44v-15.46m0-15.45v-7.73h8.08" stroke="#5a6c86" stroke-width="4" fill="none"/><use xlink:href="#J" transform="matrix(1,0,0,1,220,1370.4207375876967) translate(154.57407407407408 17.77777777777778)"/><path d="M1046.28 805.6l-.84-.66c-4.52-3.28-8.97-5.25-14.46-6.43-10.64-1.9-16.97-7.66-16.97-15.4.14-4 1.24-7.3 3.43-10.56 1.36-2.43 2.58-4.47 2.58-7.3-.12-3.92-1.66-7.2-4.63-9.76l-1.1-.92.9-1.05c0-.05 7.55-9.1 9.3-11.47l.96-1.37 1.17 1.18c2.45 2.95 5.6 4.52 9.42 4.72 3.6 0 6.38-1.57 9.16-5.18l1.1-1.38 1.1 1.38c2.7 3.6 5.54 5.18 9.16 5.18 3.8-.2 6.97-1.77 9.42-4.72l1.16-1.18.97 1.37c1.73 2.36 9.2 11.42 9.28 11.48l.9 1.06-1.1.92c-2.96 2.56-4.5 5.84-4.64 9.77 0 2.82 1.16 4.86 2.58 7.3 2.2 3.26 3.3 6.54 3.42 10.55 0 7.74-6.32 13.5-16.97 15.4-5.5 1.2-9.94 3.16-14.45 6.44zm-28.2-51.3c3.03 3.02 4.58 6.62 4.7 10.95-.2 3.22-1.1 5.97-2.96 8.6-1.55 2.75-3.03 5.3-3.03 9.18 0 9.45 11.2 12.14 14.63 12.8 5.62 1.17 10.14 3.07 14.85 6.35 4.7-3.28 9.22-5.18 14.84-6.36 3.42-.6 14.65-3.34 14.65-12.72 0-3.94-1.5-6.5-3.04-9.2-1.87-2.68-2.77-5.37-2.97-8.65.13-4.26 1.68-7.93 4.72-10.95-1.75-2.1-5.62-6.76-7.62-9.38-2.84 2.82-6.26 4.26-10.32 4.4-4.13 0-7.68-1.7-10.26-4.93-2.58 3.2-6.13 4.9-10.26 4.9-4.07-.12-7.5-1.56-10.33-4.38-2 2.62-5.88 7.28-7.62 9.38z" stroke="#fff" stroke-opacity="0" fill="#693cc5"/><use xlink:href="#K" transform="matrix(1,0,0,1,984.0118580669005,814.5948695661695) translate(7.839506172839506 17.77777777777778)"/><use xlink:href="#L" transform="matrix(1,0,0,1,984.0118580669005,814.5948695661695) translate(72.03703703703704 17.77777777777778)"/><use xlink:href="#M" transform="matrix(1,0,0,1,984.0118580669005,814.5948695661695) translate(35.339506172839506 44.44444444444444)"/><path d="M866.35 853.65H944c6.64 0 12-5.37 12-12V476.78" stroke="#666" stroke-width="2" fill="none"/><path d="M866.38 854.65h-1.03v-2h1.03z" fill="#666"/><path d="M956 461.5l4.64 14.28h-9.27z" stroke="#666" stroke-width="2" fill="#666"/><path d="M862.85 544.84h73.43v90.32h-73.43z" stroke="#000" stroke-opacity="0" stroke-width="4" fill="#fff" fill-opacity="0"/><use xlink:href="#N" transform="matrix(1,0,0,1,867.8522670014938,549.8352369342879) translate(14.5 14.4)"/><use xlink:href="#O" transform="matrix(1,0,0,1,867.8522670014938,549.8352369342879) translate(15 36)"/><use xlink:href="#P" transform="matrix(1,0,0,1,867.8522670014938,549.8352369342879) translate(3 57.6)"/><use xlink:href="#Q" transform="matrix(1,0,0,1,867.8522670014938,549.8352369342879) translate(46 57.6)"/><use xlink:href="#R" transform="matrix(1,0,0,1,867.8522670014938,549.8352369342879) translate(10.024999999999999 79.20000000000002)"/><use xlink:href="#S" transform="matrix(1,0,0,1,867.8522670014938,549.8352369342879) translate(10.524999999999999 100.80000000000001)"/><use xlink:href="#T" transform="matrix(1,0,0,1,867.8522670014938,549.8352369342879) translate(14.524999999999999 122.4)"/><use xlink:href="#U" transform="matrix(1,0,0,1,867.8522670014938,549.8352369342879) translate(-21.975 144)"/><path d="M642.1 1170.58V1247c0 6.63-5.36 12-12 12H409.83c-6.62 0-12 5.37-12 12v58.92" stroke="#666" stroke-width="2" fill="none"/><path d="M643.1 1170.6h-2v-1.02h2z" fill="#666"/><path d="M397.82 1345.18l-4.63-14.26h9.26z" stroke="#666" stroke-width="2" fill="#666"/><path d="M880 1000h189.75v87.4H880z" stroke="#000" stroke-opacity="0" stroke-width="4" fill="#fff" fill-opacity="0"/><use xlink:href="#V" transform="matrix(1,0,0,1,885,1005) translate(39.55 14.4)"/><use xlink:href="#W" transform="matrix(1,0,0,1,885,1005) translate(87.55 14.4)"/><use xlink:href="#X" transform="matrix(1,0,0,1,885,1005) translate(127.5 14.4)"/><use xlink:href="#Y" transform="matrix(1,0,0,1,885,1005) translate(14.025000000000006 36)"/><use xlink:href="#Z" transform="matrix(1,0,0,1,885,1005) translate(131.97500000000002 36)"/><use xlink:href="#aa" transform="matrix(1,0,0,1,885,1005) translate(11.549999999999997 57.6)"/><use xlink:href="#ab" transform="matrix(1,0,0,1,885,1005) translate(45.55 57.6)"/><use xlink:href="#ac" transform="matrix(1,0,0,1,885,1005) translate(82.45 57.6)"/><use xlink:href="#ad" transform="matrix(1,0,0,1,885,1005) translate(143.45 57.6)"/><use xlink:href="#ae" transform="matrix(1,0,0,1,885,1005) translate(30.125 79.20000000000002)"/><use xlink:href="#af" transform="matrix(1,0,0,1,885,1005) translate(86.92500000000001 79.20000000000002)"/><path d="M100 867.4h140v180H100z" fill="#fff" fill-opacity="0"/><path d="M111.67 867.4h7.77m7.78 0H135m7.78 0h7.78m7.77 0h7.78m7.8 0h7.77m7.77 0h7.78m7.78 0h7.78m7.78 0h7.77m7.78 0h3.9v4.1m0 8.17v8.18m0 8.2v8.17m0 8.18v8.18m0 8.18v8.2m0 8.17v8.18m0 8.2v8.17m0 8.18v8.2m0 8.17v8.18m0 8.18v8.18m0 8.2v8.17m0 8.18v4.1h-3.9m-7.77 0h-7.77m-7.78 0H205m-7.78 0h-7.78m-7.77 0h-7.78m-7.8 0h-7.77m-7.77 0h-7.78m-7.78 0h-7.78m-7.78 0h-7.77m-7.78 0H100v-4.1m0-8.17v-8.18m0-8.2v-8.17m0-8.18v-8.18m0-8.18v-8.2m0-8.17v-8.18m0-8.2v-8.17m0-8.18v-8.2m0-8.17v-8.18m0-8.18v-8.18m0-8.2v-8.17m0-8.18v-4.1h3.9" stroke="#666" stroke-width="2" fill="none"/><path d="M170 965.6l-.84-.66c-4.52-3.28-8.97-5.25-14.45-6.43-10.64-1.9-16.96-7.66-16.96-15.4.12-4 1.22-7.3 3.42-10.56 1.35-2.43 2.58-4.47 2.58-7.3-.13-3.92-1.68-7.2-4.65-9.76l-1.1-.92.9-1.05c0-.05 7.55-9.1 9.3-11.47l.96-1.37 1.16 1.18c2.45 2.95 5.6 4.52 9.42 4.72 3.6 0 6.4-1.57 9.16-5.18L170 900l1.1 1.38c2.7 3.6 5.55 5.18 9.16 5.18 3.8-.2 6.97-1.77 9.42-4.72l1.16-1.18.97 1.37c1.75 2.36 9.24 11.42 9.3 11.48l.9 1.06-1.1.92c-2.96 2.56-4.5 5.84-4.64 9.77 0 2.82 1.16 4.86 2.58 7.3 2.2 3.26 3.3 6.54 3.42 10.55 0 7.74-6.32 13.5-16.97 15.4-5.5 1.2-9.94 3.16-14.46 6.44zm-28.2-51.3c3.03 3.02 4.58 6.62 4.7 10.95-.18 3.22-1.1 5.97-2.96 8.6-1.55 2.75-3.03 5.3-3.03 9.18 0 9.45 11.24 12.14 14.66 12.8 5.6 1.17 10.13 3.07 14.84 6.35 4.7-3.28 9.23-5.18 14.84-6.36 3.42-.6 14.65-3.34 14.65-12.72 0-3.94-1.5-6.5-3.04-9.2-1.87-2.68-2.78-5.37-2.97-8.65.12-4.26 1.67-7.93 4.7-10.95-1.74-2.1-5.6-6.76-7.62-9.38-2.83 2.82-6.25 4.26-10.32 4.4-4.13 0-7.68-1.7-10.26-4.93-2.58 3.2-6.13 4.9-10.26 4.9-4.07-.12-7.5-1.56-10.32-4.38-2 2.62-5.88 7.28-7.62 9.38z" stroke="#fff" stroke-opacity="0" fill="#693cc5"/><use xlink:href="#K" transform="matrix(1,0,0,1,107.7355235321404,974.5948695661695) translate(7.839506172839506 17.77777777777778)"/><use xlink:href="#L" transform="matrix(1,0,0,1,107.7355235321404,974.5948695661695) translate(72.03703703703704 17.77777777777778)"/><use xlink:href="#M" transform="matrix(1,0,0,1,107.7355235321404,974.5948695661695) translate(35.339506172839506 44.44444444444444)"/><path d="M100 680h140v60H100z" fill="#fff" fill-opacity="0"/><path d="M111.67 680h7.77m7.78 0H135m7.78 0h7.78m7.77 0h7.78m7.8 0h7.77m7.77 0h7.78m7.78 0h7.78m7.78 0h7.77m7.78 0h3.9v3.75m0 7.5v7.5m0 7.5v7.5m0 7.5v7.5m0 7.5V740h-3.9m-7.77 0h-7.77m-7.78 0H205m-7.78 0h-7.78m-7.77 0h-7.78m-7.8 0h-7.77m-7.77 0h-7.78m-7.78 0h-7.78m-7.78 0h-7.77m-7.78 0H100v-3.75m0-7.5v-7.5m0-7.5v-7.5m0-7.5v-7.5m0-7.5V680h3.9" stroke="#666" stroke-width="2" fill="none"/><use xlink:href="#ag" transform="matrix(1,0,0,1,100,700) translate(42.87037037037037 17.77777777777778)"/><path d="M265.48 459.28v97.86c0 6.63-5.37 12-12 12H192c-6.63 0-12 5.37-12 12v80.36" stroke="#666" stroke-width="2" fill="none"/><path d="M266.48 459.3h-2v-1.02h2z" fill="#666"/><path d="M180 676.76l-4.64-14.26h9.28z" stroke="#666" stroke-width="2" fill="#666"/><path d="M170 742v105.9" stroke="#666" stroke-width="2" fill="none"/><path d="M171 742.03h-2V741h2z" fill="#666"/><path d="M170 863.16l-4.64-14.26h9.28z" stroke="#666" stroke-width="2" fill="#666"/><path d="M170 1049.4v38.6c0 6.63 5.37 12 12 12h219.5" stroke="#666" stroke-width="2" fill="none"/><path d="M171 1049.43h-2v-1.03h2z" fill="#666"/><path d="M416.76 1100l-14.26 4.64v-9.28z" stroke="#666" stroke-width="2" fill="#666"/><path d="M974.2 700h140v180h-140z" fill="#fff" fill-opacity="0"/><path d="M985.87 700h7.77m7.78 0h7.78m7.78 0h7.78m7.77 0h7.78m7.8 0h7.77m7.77 0h7.78m7.78 0h7.78m7.78 0h7.77m7.78 0h3.9v4.1m0 8.17v8.18m0 8.2v8.17m0 8.18v8.18m0 8.18v8.2m0 8.17v8.18m0 8.2v8.17m0 8.18v8.2m0 8.17V835m0 8.18v8.18m0 8.2v8.17m0 8.18v4.1h-3.9m-7.77 0h-7.77m-7.78 0h-7.78m-7.78 0h-7.78m-7.77 0h-7.78m-7.8 0h-7.77m-7.77 0h-7.78m-7.78 0h-7.78m-7.78 0h-7.77m-7.78 0h-3.9v-4.1m0-8.17v-8.18m0-8.2v-8.17m0-8.18v-8.18m0-8.18v-8.2m0-8.17v-8.18m0-8.2v-8.17m0-8.18v-8.2m0-8.17V745m0-8.18v-8.18m0-8.2v-8.17m0-8.18V700h3.9" stroke="#666" stroke-width="2" fill="none"/><path d="M180 1115.5h189.75v96.4H180z" stroke="#000" stroke-opacity="0" stroke-width="4" fill="#fff" fill-opacity="0"/><g><use xlink:href="#V" transform="matrix(1,0,0,1,185,1120.5) translate(26.025 14.4)"/><use xlink:href="#W" transform="matrix(1,0,0,1,185,1120.5) translate(74.025 14.4)"/><use xlink:href="#ah" transform="matrix(1,0,0,1,185,1120.5) translate(113.975 14.4)"/><use xlink:href="#Y" transform="matrix(1,0,0,1,185,1120.5) translate(14.025000000000006 36)"/><use xlink:href="#Z" transform="matrix(1,0,0,1,185,1120.5) translate(131.97500000000002 36)"/><use xlink:href="#aa" transform="matrix(1,0,0,1,185,1120.5) translate(1.0250000000000057 57.6)"/><use xlink:href="#ai" transform="matrix(1,0,0,1,185,1120.5) translate(35.025000000000006 57.6)"/><use xlink:href="#aj" transform="matrix(1,0,0,1,185,1120.5) translate(79.025 57.6)"/><use xlink:href="#ak" transform="matrix(1,0,0,1,185,1120.5) translate(94.025 57.6)"/><use xlink:href="#al" transform="matrix(1,0,0,1,185,1120.5) translate(148.975 57.6)"/><use xlink:href="#am" transform="matrix(1,0,0,1,185,1120.5) translate(18.125 79.20000000000002)"/><use xlink:href="#an" transform="matrix(1,0,0,1,185,1120.5) translate(59.025 79.20000000000002)"/><use xlink:href="#ao" transform="matrix(1,0,0,1,185,1120.5) translate(98.925 79.20000000000002)"/></g><path d="M1044.2 882v90.7c0 6.63-5.37 12-12 12H883.86" stroke="#666" stroke-width="2" fill="none"/><path d="M1045.2 882.03h-2V881h2z" fill="#666"/><path d="M868.6 984.7l14.26-4.63v9.27z" stroke="#666" stroke-width="2" fill="#666"/><path d="M1046.28 622v58.5" stroke="#666" stroke-width="2" fill="none"/><path d="M1047.28 622.03h-2V621h2z" fill="#666"/><path d="M1046.28 695.76l-4.64-14.26h9.27z" stroke="#666" stroke-width="2" fill="#666"/><path d="M740 1419.37h161.88v220H740z" fill="#fff" fill-opacity="0"/><path d="M764.28 1419.37h16.2m16.18 0h16.2m16.18 0h16.18m16.2 0h16.18m16.2 0h8.08v7.86m0 15.7v15.72m0 15.72v15.7m0 15.73v15.7m0 15.73v15.7m0 15.72v15.72m0 15.7v15.73m0 15.7v7.87h-8.1m-16.18 0h-16.2m-16.18 0h-16.18m-16.2 0h-16.18m-16.2 0H764.3m-16.2 0H740v-7.86m0-15.7v-15.72m0-15.7v-15.73m0-15.7v-15.72m0-15.72v-15.7m0-15.72v-15.7m0-15.73v-15.7m0-15.72v-7.86h8.1" stroke="#666" stroke-width="4" fill="none"/><g><use xlink:href="#ap" transform="matrix(1,0,0,1,740,1439.3681060087495) translate(40.93827160493827 17.77777777777778)"/></g><path d="M818.63 1560.42c-10.83 0-28.1-2.46-28.3-9.1l-7.74-57.2c-.15-.97.42-1.86 1.36-2.06.94-.14 1.88.47 2.1 1.43.8 3.27 13.65 7.85 32.65 7.85s31.86-4.58 32.65-7.86c.22-.97 1.16-1.58 2.1-1.44.94.2 1.5 1.1 1.37 2.05l-7.87 57.23c0 2.25-2.1 4.17-6 5.74-1.8.68-3.4 1.16-5.27 1.57-5.92 1.3-10.98 1.78-17.05 1.78zm-31.92-61.66l6.94 52.3v.2c0 2.05 9.75 5.8 24.92 5.8 5.78.08 10.62-.47 16.25-1.63 1.75-.4 3.2-.9 4.85-1.57 3.1-1.23 3.83-2.33 3.83-2.67v-.2l7-52.24c-6.57 3.9-19.78 6-31.92 6-12.13 0-25.28-2.1-31.85-6z" stroke="#fff" stroke-opacity="0"/><path d="M818.65 1504.74c-16.15 0-34.25-3.64-35.98-10.4V1493.4v-.2c0-7.53 19.03-12.78 36.12-12.78 17.08 0 35.97 5.25 35.97 12.77v.2l-.07.7v.23c-1.88 6.77-19.97 10.4-36.05 10.4zM786 1493.56c1.07 3.28 13.83 7.78 32.65 7.78s31.58-4.5 32.66-7.78v-.47c-.2-3.3-13.62-9.27-32.65-9.27-19.04 0-32.52 5.96-32.74 9.26zM854.82 1528.3c-8.07 0-25.83-8.03-36.92-13.48l1.5-3.06c15.3 7.53 33.35 14.5 36.46 13.18-.25-.48-1.4-2.02-6.83-4.97l-.25-.16 1.7-2.96.24.17c5.47 3 8.07 5.32 8.53 7.5.17.95-.08 1.85-.7 2.6-1.04.94-2.32 1.35-3.73 1.2z" stroke="#fff" stroke-opacity="0"/><path d="M818.65 1517.02c-2.04 0-3.7-1.66-3.7-3.7s1.66-3.7 3.7-3.7 3.7 1.66 3.7 3.7c-.02 2.04-1.66 3.7-3.7 3.7zm0-4h-.02c-.16 0-.3.14-.3.3 0 .33.6.33.6 0v-.03c0-.18-.12-.3-.28-.3z" stroke="#fff" stroke-opacity="0"/><g><use xlink:href="#aq" transform="matrix(1,0,0,1,752.5911352757364,1569.4207375876967) translate(27.5 14.4)"/><use xlink:href="#ar" transform="matrix(1,0,0,1,752.5911352757364,1569.4207375876967) translate(54.5 14.4)"/></g><path d="M623.07 1037.77H606.9V1020h16.17zm-12.76-3.4h9.35v-10.96h-9.34zM623.07 1058.5H606.9v-17.75h16.17zm-12.76-3.4h9.35v-10.94h-9.34zM623.07 1079.25H606.9v-17.75h16.17zm-12.76-3.4h9.35v-10.94h-9.34zM623.07 1100H606.9v-17.77h16.17zm-12.76-3.4h9.35v-10.96h-9.34zM642.22 1037.77h-16.18V1020h16.18zm-12.76-3.4h9.34v-10.96h-9.34zM642.22 1058.5h-16.18v-17.75h16.18zm-12.76-3.4h9.34v-10.94h-9.34zM642.22 1079.25h-16.18v-17.75h16.18zm-12.76-3.4h9.34v-10.94h-9.34zM642.22 1100h-16.18v-17.77h16.18zm-12.76-3.4h9.34v-10.96h-9.34zM686.9 1037.77h-41.7V1020h41.7zm-38.3-3.4h34.88v-10.96H648.6zM686.9 1058.5h-41.7v-17.75h41.7zm-38.3-3.4h34.88v-10.94H648.6zM686.9 1079.25h-41.7v-17.75h41.7zm-38.3-3.4h34.88v-10.94H648.6zM686.9 1100h-41.7v-17.77h41.7zm-38.3-3.4h34.88v-10.96H648.6z" stroke="#fff" stroke-opacity="0" fill="#2a3282"/><path d="M608.4 1021.6h76.77v76.56H608.4v-76.56z" stroke="#fff" stroke-opacity="0" stroke-width=".4" fill="#fff" fill-opacity="0"/><g><use xlink:href="#as" transform="matrix(1,0,0,1,576.8959925995441,1109) translate(55.5 14.4)"/></g><path d="M687.7 1170.58v112.2c0 6.64 5.38 12 12 12H808c6.63 0 12 5.38 12 12v94.72" stroke="#666" stroke-width="2" fill="none"/><path d="M688.7 1170.6h-2v-1.02h2z" fill="#666"/><path d="M820 1416.76l-4.64-14.26h9.28z" stroke="#666" stroke-width="2" fill="#666"/><defs><path fill="#666" d="M182-130c37 4 62 22 62 59C244 23 116-4 24 0v-248c84 5 203-23 205 63 0 31-19 50-47 55zM76-148c40-3 101 13 101-30 0-44-60-28-101-31v61zm0 110c48-3 116 14 116-37 0-48-69-32-116-35v72" id="at"/><path fill="#666" d="M133-34C117-15 103 5 69 4 32 3 11-16 11-54c-1-60 55-63 116-61 1-26-3-47-28-47-18 1-26 9-28 27l-52-2c7-38 36-58 82-57s74 22 75 68l1 82c-1 14 12 18 25 15v27c-30 8-71 5-69-32zm-48 3c29 0 43-24 42-57-32 0-66-3-65 30 0 17 8 27 23 27" id="au"/><path fill="#666" d="M190-63c-7 42-38 67-86 67-59 0-84-38-90-98-12-110 154-137 174-36l-49 2c-2-19-15-32-35-32-30 0-35 28-38 64-6 74 65 87 74 30" id="av"/><path fill="#666" d="M147 0L96-86 75-71V0H25v-261h50v150l67-79h53l-66 74L201 0h-54" id="aw"/><path fill="#666" d="M185-48c-13 30-37 53-82 52C43 2 14-33 14-96s30-98 90-98c62 0 83 45 84 108H66c0 31 8 55 39 56 18 0 30-7 34-22zm-45-69c5-46-57-63-70-21-2 6-4 13-4 21h74" id="ax"/><path fill="#666" d="M135-194c87-1 58 113 63 194h-50c-7-57 23-157-34-157-59 0-34 97-39 157H25l-1-190h47c2 12-1 28 3 38 12-26 28-41 61-42" id="ay"/><path fill="#666" d="M88-194c31-1 46 15 58 34l-1-101h50l1 261h-48c-2-10 0-23-3-31C134-8 116 4 84 4 32 4 16-41 15-95c0-56 19-97 73-99zm17 164c33 0 40-30 41-66 1-37-9-64-41-64s-38 30-39 65c0 43 13 65 39 65" id="az"/><g id="a"><use transform="matrix(0.04320987654320988,0,0,0.04320987654320988,0,0)" xlink:href="#at"/><use transform="matrix(0.04320987654320988,0,0,0.04320987654320988,11.19135802469136,0)" xlink:href="#au"/><use transform="matrix(0.04320987654320988,0,0,0.04320987654320988,19.833333333333336,0)" xlink:href="#av"/><use transform="matrix(0.04320987654320988,0,0,0.04320987654320988,28.47530864197531,0)" xlink:href="#aw"/><use transform="matrix(0.04320987654320988,0,0,0.04320987654320988,37.117283950617285,0)" xlink:href="#ax"/><use transform="matrix(0.04320987654320988,0,0,0.04320987654320988,45.75925925925927,0)" xlink:href="#ay"/><use transform="matrix(0.04320987654320988,0,0,0.04320987654320988,55.22222222222222,0)" xlink:href="#az"/></g><path fill="#666" d="M169-182c-1-43-94-46-97-3 18 66 151 10 154 114 3 95-165 93-204 36-6-8-10-19-12-30l50-8c3 46 112 56 116 5-17-69-150-10-154-114-4-87 153-88 188-35 5 8 8 18 10 28" id="aA"/><path fill="#666" d="M135-150c-39-12-60 13-60 57V0H25l-1-190h47c2 13-1 29 3 40 6-28 27-53 61-41v41" id="aB"/><path fill="#666" d="M128 0H69L1-190h53L99-40l48-150h52" id="aC"/><g id="b"><use transform="matrix(0.04320987654320988,0,0,0.04320987654320988,0,0)" xlink:href="#aA"/><use transform="matrix(0.04320987654320988,0,0,0.04320987654320988,10.370370370370372,0)" xlink:href="#ax"/><use transform="matrix(0.04320987654320988,0,0,0.04320987654320988,19.01234567901235,0)" xlink:href="#aB"/><use transform="matrix(0.04320987654320988,0,0,0.04320987654320988,25.06172839506173,0)" xlink:href="#aC"/><use transform="matrix(0.04320987654320988,0,0,0.04320987654320988,33.70370370370371,0)" xlink:href="#ax"/><use transform="matrix(0.04320987654320988,0,0,0.04320987654320988,42.345679012345684,0)" xlink:href="#aB"/></g><path fill="#666" d="M33 0v-248h34V0H33" id="aD"/><path fill="#666" d="M117-194c89-4 53 116 60 194h-32v-121c0-31-8-49-39-48C34-167 62-67 57 0H25l-1-190h30c1 10-1 24 2 32 11-22 29-35 61-36" id="aE"/><path fill="#666" d="M59-47c-2 24 18 29 38 22v24C64 9 27 4 27-40v-127H5v-23h24l9-43h21v43h35v23H59v120" id="aF"/><path fill="#666" d="M100-194c63 0 86 42 84 106H49c0 40 14 67 53 68 26 1 43-12 49-29l28 8c-11 28-37 45-77 45C44 4 14-33 15-96c1-61 26-98 85-98zm52 81c6-60-76-77-97-28-3 7-6 17-6 28h103" id="aG"/><path fill="#666" d="M114-163C36-179 61-72 57 0H25l-1-190h30c1 12-1 29 2 39 6-27 23-49 58-41v29" id="aH"/><g id="c"><use transform="matrix(0.05555555555555555,0,0,0.05555555555555555,0,0)" xlink:href="#aD"/><use transform="matrix(0.05555555555555555,0,0,0.05555555555555555,5.555555555555555,0)" xlink:href="#aE"/><use transform="matrix(0.05555555555555555,0,0,0.05555555555555555,16.666666666666664,0)" xlink:href="#aF"/><use transform="matrix(0.05555555555555555,0,0,0.05555555555555555,22.22222222222222,0)" xlink:href="#aG"/><use transform="matrix(0.05555555555555555,0,0,0.05555555555555555,33.33333333333333,0)" xlink:href="#aH"/><use transform="matrix(0.05555555555555555,0,0,0.05555555555555555,39.94444444444444,0)" xlink:href="#aE"/><use transform="matrix(0.05555555555555555,0,0,0.05555555555555555,51.05555555555556,0)" xlink:href="#aG"/><use transform="matrix(0.05555555555555555,0,0,0.05555555555555555,62.16666666666668,0)" xlink:href="#aF"/></g><path fill="#666" d="M190 0L58-211 59 0H30v-248h39L202-35l-2-213h31V0h-41" id="aI"/><path fill="#666" d="M100-194c62-1 85 37 85 99 1 63-27 99-86 99S16-35 15-95c0-66 28-99 85-99zM99-20c44 1 53-31 53-75 0-43-8-75-51-75s-53 32-53 75 10 74 51 75" id="aJ"/><path fill="#666" d="M85-194c31 0 48 13 60 33l-1-100h32l1 261h-30c-2-10 0-23-3-31C134-8 116 4 85 4 32 4 16-35 15-94c0-66 23-100 70-100zm9 24c-40 0-46 34-46 75 0 40 6 74 45 74 42 0 51-32 51-76 0-42-9-74-50-73" id="aK"/><path fill="#666" d="M153-248C145-148 188 4 80 4 36 3 13-21 6-62l32-5c4 25 16 42 43 43 27 0 39-20 39-49v-147H72v-28h81" id="aL"/><path fill="#666" d="M135-143c-3-34-86-38-87 0 15 53 115 12 119 90S17 21 10-45l28-5c4 36 97 45 98 0-10-56-113-15-118-90-4-57 82-63 122-42 12 7 21 19 24 35" id="aM"/><path fill="#666" d="M0 4l72-265h28L28 4H0" id="aN"/><path fill="#666" d="M30 0v-248h187v28H63v79h144v27H63v87h162V0H30" id="aO"/><path fill="#666" d="M141 0L90-78 38 0H4l68-98-65-92h35l48 74 47-74h35l-64 92 68 98h-35" id="aP"/><path fill="#666" d="M115-194c55 1 70 41 70 98S169 2 115 4C84 4 66-9 55-30l1 105H24l-1-265h31l2 30c10-21 28-34 59-34zm-8 174c40 0 45-34 45-75s-6-73-45-74c-42 0-51 32-51 76 0 43 10 73 51 73" id="aQ"/><g id="d"><use transform="matrix(0.06172839506172839,0,0,0.06172839506172839,0,0)" xlink:href="#aI"/><use transform="matrix(0.06172839506172839,0,0,0.06172839506172839,15.987654320987653,0)" xlink:href="#aJ"/><use transform="matrix(0.06172839506172839,0,0,0.06172839506172839,28.333333333333332,0)" xlink:href="#aK"/><use transform="matrix(0.06172839506172839,0,0,0.06172839506172839,40.67901234567901,0)" xlink:href="#aG"/><use transform="matrix(0.06172839506172839,0,0,0.06172839506172839,53.02469135802469,0)" xlink:href="#aL"/><use transform="matrix(0.06172839506172839,0,0,0.06172839506172839,64.1358024691358,0)" xlink:href="#aM"/><use transform="matrix(0.06172839506172839,0,0,0.06172839506172839,75.24691358024691,0)" xlink:href="#aN"/><use transform="matrix(0.06172839506172839,0,0,0.06172839506172839,81.41975308641975,0)" xlink:href="#aO"/><use transform="matrix(0.06172839506172839,0,0,0.06172839506172839,96.23456790123456,0)" xlink:href="#aP"/><use transform="matrix(0.06172839506172839,0,0,0.06172839506172839,107.34567901234567,0)" xlink:href="#aQ"/><use transform="matrix(0.06172839506172839,0,0,0.06172839506172839,119.69135802469135,0)" xlink:href="#aH"/><use transform="matrix(0.06172839506172839,0,0,0.06172839506172839,127.03703703703702,0)" xlink:href="#aG"/><use transform="matrix(0.06172839506172839,0,0,0.06172839506172839,139.3827160493827,0)" xlink:href="#aM"/><use transform="matrix(0.06172839506172839,0,0,0.06172839506172839,150.49382716049382,0)" xlink:href="#aM"/></g><path fill="#666" d="M210-169c-67 3-38 105-44 169h-31v-121c0-29-5-50-35-48C34-165 62-65 56 0H25l-1-190h30c1 10-1 24 2 32 10-44 99-50 107 0 11-21 27-35 58-36 85-2 47 119 55 194h-31v-121c0-29-5-49-35-48" id="aR"/><path fill="#666" d="M177-190C167-65 218 103 67 71c-23-6-38-20-44-43l32-5c15 47 100 32 89-28v-30C133-14 115 1 83 1 29 1 15-40 15-95c0-56 16-97 71-98 29-1 48 16 59 35 1-10 0-23 2-32h30zM94-22c36 0 50-32 50-73 0-42-14-75-50-75-39 0-46 34-46 75s6 73 46 73" id="aS"/><g id="e"><use transform="matrix(0.06172839506172839,0,0,0.06172839506172839,0,0)" xlink:href="#aR"/><use transform="matrix(0.06172839506172839,0,0,0.06172839506172839,18.456790123456788,0)" xlink:href="#aJ"/><use transform="matrix(0.06172839506172839,0,0,0.06172839506172839,30.80246913580247,0)" xlink:href="#aE"/><use transform="matrix(0.06172839506172839,0,0,0.06172839506172839,43.148148148148145,0)" xlink:href="#aS"/><use transform="matrix(0.06172839506172839,0,0,0.06172839506172839,55.49382716049382,0)" xlink:href="#aJ"/><use transform="matrix(0.06172839506172839,0,0,0.06172839506172839,67.8395061728395,0)" xlink:href="#aJ"/><use transform="matrix(0.06172839506172839,0,0,0.06172839506172839,80.18518518518519,0)" xlink:href="#aM"/><use transform="matrix(0.06172839506172839,0,0,0.06172839506172839,91.2962962962963,0)" xlink:href="#aG"/></g><path fill="#666" d="M141-36C126-15 110 5 73 4 37 3 15-17 15-53c-1-64 63-63 125-63 3-35-9-54-41-54-24 1-41 7-42 31l-33-3c5-37 33-52 76-52 45 0 72 20 72 64v82c-1 20 7 32 28 27v20c-31 9-61-2-59-35zM48-53c0 20 12 33 32 33 41-3 63-29 60-74-43 2-92-5-92 41" id="aT"/><path fill="#666" d="M24 0v-261h32V0H24" id="aU"/><g id="f"><use transform="matrix(0.06172839506172839,0,0,0.06172839506172839,0,0)" xlink:href="#aI"/><use transform="matrix(0.06172839506172839,0,0,0.06172839506172839,15.987654320987653,0)" xlink:href="#aJ"/><use transform="matrix(0.06172839506172839,0,0,0.06172839506172839,28.333333333333332,0)" xlink:href="#aH"/><use transform="matrix(0.06172839506172839,0,0,0.06172839506172839,35.67901234567901,0)" xlink:href="#aR"/><use transform="matrix(0.06172839506172839,0,0,0.06172839506172839,54.1358024691358,0)" xlink:href="#aT"/><use transform="matrix(0.06172839506172839,0,0,0.06172839506172839,66.48148148148148,0)" xlink:href="#aU"/></g><path fill="#666" d="M232-93c-1 65-40 97-104 97C67 4 28-28 28-90v-158h33c8 89-33 224 67 224 102 0 64-133 71-224h33v155" id="aV"/><g id="g"><use transform="matrix(0.06172839506172839,0,0,0.06172839506172839,0,0)" xlink:href="#aV"/><use transform="matrix(0.06172839506172839,0,0,0.06172839506172839,15.987654320987653,0)" xlink:href="#aM"/><use transform="matrix(0.06172839506172839,0,0,0.06172839506172839,27.098765432098766,0)" xlink:href="#aG"/><use transform="matrix(0.06172839506172839,0,0,0.06172839506172839,39.44444444444444,0)" xlink:href="#aH"/><use transform="matrix(0.06172839506172839,0,0,0.06172839506172839,46.79012345679012,0)" xlink:href="#aM"/></g><path d="M96-169c-40 0-48 33-48 73s9 75 48 75c24 0 41-14 43-38l32 2c-6 37-31 61-74 61-59 0-76-41-82-99-10-93 101-131 147-64 4 7 5 14 7 22l-32 3c-4-21-16-35-41-35" id="aW"/><path d="M24 0v-261h32V0H24" id="aX"/><path d="M24-231v-30h32v30H24zM24 0v-190h32V0H24" id="aY"/><path d="M100-194c63 0 86 42 84 106H49c0 40 14 67 53 68 26 1 43-12 49-29l28 8c-11 28-37 45-77 45C44 4 14-33 15-96c1-61 26-98 85-98zm52 81c6-60-76-77-97-28-3 7-6 17-6 28h103" id="aZ"/><path d="M117-194c89-4 53 116 60 194h-32v-121c0-31-8-49-39-48C34-167 62-67 57 0H25l-1-190h30c1 10-1 24 2 32 11-22 29-35 61-36" id="ba"/><path d="M59-47c-2 24 18 29 38 22v24C64 9 27 4 27-40v-127H5v-23h24l9-43h21v43h35v23H59v120" id="bb"/><g id="h"><use transform="matrix(0.06172839506172839,0,0,0.06172839506172839,0,0)" xlink:href="#aW"/><use transform="matrix(0.06172839506172839,0,0,0.06172839506172839,11.11111111111111,0)" xlink:href="#aX"/><use transform="matrix(0.06172839506172839,0,0,0.06172839506172839,15.987654320987653,0)" xlink:href="#aY"/><use transform="matrix(0.06172839506172839,0,0,0.06172839506172839,20.864197530864196,0)" xlink:href="#aZ"/><use transform="matrix(0.06172839506172839,0,0,0.06172839506172839,33.20987654320987,0)" xlink:href="#ba"/><use transform="matrix(0.06172839506172839,0,0,0.06172839506172839,45.55555555555555,0)" xlink:href="#bb"/></g><path d="M210-169c-67 3-38 105-44 169h-31v-121c0-29-5-50-35-48C34-165 62-65 56 0H25l-1-190h30c1 10-1 24 2 32 10-44 99-50 107 0 11-21 27-35 58-36 85-2 47 119 55 194h-31v-121c0-29-5-49-35-48" id="bc"/><path d="M141-36C126-15 110 5 73 4 37 3 15-17 15-53c-1-64 63-63 125-63 3-35-9-54-41-54-24 1-41 7-42 31l-33-3c5-37 33-52 76-52 45 0 72 20 72 64v82c-1 20 7 32 28 27v20c-31 9-61-2-59-35zM48-53c0 20 12 33 32 33 41-3 63-29 60-74-43 2-92-5-92 41" id="bd"/><path d="M106-169C34-169 62-67 57 0H25v-261h32l-1 103c12-21 28-36 61-36 89 0 53 116 60 194h-32v-121c2-32-8-49-39-48" id="be"/><g id="i"><use transform="matrix(0.06172839506172839,0,0,0.06172839506172839,0,0)" xlink:href="#bc"/><use transform="matrix(0.06172839506172839,0,0,0.06172839506172839,18.456790123456788,0)" xlink:href="#bd"/><use transform="matrix(0.06172839506172839,0,0,0.06172839506172839,30.80246913580247,0)" xlink:href="#aW"/><use transform="matrix(0.06172839506172839,0,0,0.06172839506172839,41.91358024691358,0)" xlink:href="#be"/><use transform="matrix(0.06172839506172839,0,0,0.06172839506172839,54.25925925925926,0)" xlink:href="#aY"/><use transform="matrix(0.06172839506172839,0,0,0.06172839506172839,59.135802469135804,0)" xlink:href="#ba"/><use transform="matrix(0.06172839506172839,0,0,0.06172839506172839,71.48148148148148,0)" xlink:href="#aZ"/></g><path fill="#1d1c1d" d="M194 0L95-120 63-95V0H30v-248h33v124l119-124h40L117-140 236 0h-42" id="bf"/><path fill="#1d1c1d" d="M24 0v-261h32V0H24" id="bg"/><path fill="#1d1c1d" d="M24-231v-30h32v30H24zM24 0v-190h32V0H24" id="bh"/><path fill="#1d1c1d" d="M117-194c89-4 53 116 60 194h-32v-121c0-31-8-49-39-48C34-167 62-67 57 0H25l-1-190h30c1 10-1 24 2 32 11-22 29-35 61-36" id="bi"/><path fill="#1d1c1d" d="M96-169c-40 0-48 33-48 73s9 75 48 75c24 0 41-14 43-38l32 2c-6 37-31 61-74 61-59 0-76-41-82-99-10-93 101-131 147-64 4 7 5 14 7 22l-32 3c-4-21-16-35-41-35" id="bj"/><g id="j"><use transform="matrix(0.05555555555555555,0,0,0.05555555555555555,0,0)" xlink:href="#bf"/><use transform="matrix(0.05555555555555555,0,0,0.05555555555555555,13.333333333333332,0)" xlink:href="#bg"/><use transform="matrix(0.05555555555555555,0,0,0.05555555555555555,17.72222222222222,0)" xlink:href="#bh"/><use transform="matrix(0.05555555555555555,0,0,0.05555555555555555,22.11111111111111,0)" xlink:href="#bi"/><use transform="matrix(0.05555555555555555,0,0,0.05555555555555555,33.22222222222222,0)" xlink:href="#bh"/><use transform="matrix(0.05555555555555555,0,0,0.05555555555555555,37.61111111111111,0)" xlink:href="#bj"/></g><path fill="#1d1c1d" d="M30-248c118-7 216 8 213 122C240-48 200 0 122 0H30v-248zM63-27c89 8 146-16 146-99s-60-101-146-95v194" id="bk"/><path fill="#1d1c1d" d="M100-194c62-1 85 37 85 99 1 63-27 99-86 99S16-35 15-95c0-66 28-99 85-99zM99-20c44 1 53-31 53-75 0-43-8-75-51-75s-53 32-53 75 10 74 51 75" id="bl"/><path fill="#1d1c1d" d="M59-47c-2 24 18 29 38 22v24C64 9 27 4 27-40v-127H5v-23h24l9-43h21v43h35v23H59v120" id="bm"/><path fill="#1d1c1d" d="M114-163C36-179 61-72 57 0H25l-1-190h30c1 12-1 29 2 39 6-27 23-49 58-41v29" id="bn"/><g id="k"><use transform="matrix(0.05555555555555555,0,0,0.05555555555555555,0,0)" xlink:href="#bk"/><use transform="matrix(0.05555555555555555,0,0,0.05555555555555555,14.388888888888888,0)" xlink:href="#bl"/><use transform="matrix(0.05555555555555555,0,0,0.05555555555555555,25.5,0)" xlink:href="#bj"/><use transform="matrix(0.05555555555555555,0,0,0.05555555555555555,35.5,0)" xlink:href="#bm"/><use transform="matrix(0.05555555555555555,0,0,0.05555555555555555,41.05555555555556,0)" xlink:href="#bl"/><use transform="matrix(0.05555555555555555,0,0,0.05555555555555555,52.16666666666667,0)" xlink:href="#bn"/></g><path fill="#1d1c1d" d="M30 0v-248h33v221h125V0H30" id="bo"/><path fill="#1d1c1d" d="M100-194c63 0 86 42 84 106H49c0 40 14 67 53 68 26 1 43-12 49-29l28 8c-11 28-37 45-77 45C44 4 14-33 15-96c1-61 26-98 85-98zm52 81c6-60-76-77-97-28-3 7-6 17-6 28h103" id="bp"/><path fill="#1d1c1d" d="M177-190C167-65 218 103 67 71c-23-6-38-20-44-43l32-5c15 47 100 32 89-28v-30C133-14 115 1 83 1 29 1 15-40 15-95c0-56 16-97 71-98 29-1 48 16 59 35 1-10 0-23 2-32h30zM94-22c36 0 50-32 50-73 0-42-14-75-50-75-39 0-46 34-46 75s6 73 46 73" id="bq"/><g id="l"><use transform="matrix(0.05555555555555555,0,0,0.05555555555555555,0,0)" xlink:href="#bo"/><use transform="matrix(0.05555555555555555,0,0,0.05555555555555555,11.11111111111111,0)" xlink:href="#bp"/><use transform="matrix(0.05555555555555555,0,0,0.05555555555555555,22.22222222222222,0)" xlink:href="#bl"/><use transform="matrix(0.05555555555555555,0,0,0.05555555555555555,33.33333333333333,0)" xlink:href="#bi"/><use transform="matrix(0.05555555555555555,0,0,0.05555555555555555,44.44444444444444,0)" xlink:href="#bq"/></g><path fill="#666" d="M205 0l-28-72H64L36 0H1l101-248h38L239 0h-34zm-38-99l-47-123c-12 45-31 82-46 123h93" id="br"/><path fill="#666" d="M24-231v-30h32v30H24zM24 0v-190h32V0H24" id="bs"/><g id="m"><use transform="matrix(0.06172839506172839,0,0,0.06172839506172839,0,0)" xlink:href="#br"/><use transform="matrix(0.06172839506172839,0,0,0.06172839506172839,14.814814814814813,0)" xlink:href="#aK"/><use transform="matrix(0.06172839506172839,0,0,0.06172839506172839,27.160493827160494,0)" xlink:href="#aR"/><use transform="matrix(0.06172839506172839,0,0,0.06172839506172839,45.61728395061728,0)" xlink:href="#bs"/><use transform="matrix(0.06172839506172839,0,0,0.06172839506172839,50.49382716049382,0)" xlink:href="#aE"/></g><g id="n"><use transform="matrix(0.06172839506172839,0,0,0.06172839506172839,0,0)" xlink:href="#aV"/><use transform="matrix(0.06172839506172839,0,0,0.06172839506172839,15.987654320987653,0)" xlink:href="#aM"/><use transform="matrix(0.06172839506172839,0,0,0.06172839506172839,27.098765432098766,0)" xlink:href="#aG"/><use transform="matrix(0.06172839506172839,0,0,0.06172839506172839,39.44444444444444,0)" xlink:href="#aH"/></g><path d="M240 0l2-218c-23 76-54 145-80 218h-23L58-218 59 0H30v-248h44l77 211c21-75 51-140 76-211h43V0h-30" id="bt"/><path d="M100-194c62-1 85 37 85 99 1 63-27 99-86 99S16-35 15-95c0-66 28-99 85-99zM99-20c44 1 53-31 53-75 0-43-8-75-51-75s-53 32-53 75 10 74 51 75" id="bu"/><path d="M177-190C167-65 218 103 67 71c-23-6-38-20-44-43l32-5c15 47 100 32 89-28v-30C133-14 115 1 83 1 29 1 15-40 15-95c0-56 16-97 71-98 29-1 48 16 59 35 1-10 0-23 2-32h30zM94-22c36 0 50-32 50-73 0-42-14-75-50-75-39 0-46 34-46 75s6 73 46 73" id="bv"/><path d="M30-248c118-7 216 8 213 122C240-48 200 0 122 0H30v-248zM63-27c89 8 146-16 146-99s-60-101-146-95v194" id="bw"/><path d="M160-131c35 5 61 23 61 61C221 17 115-2 30 0v-248c76 3 177-17 177 60 0 33-19 50-47 57zm-97-11c50-1 110 9 110-42 0-47-63-36-110-37v79zm0 115c55-2 124 14 124-45 0-56-70-42-124-44v89" id="bx"/><g id="o"><use transform="matrix(0.06172839506172839,0,0,0.06172839506172839,0,0)" xlink:href="#bt"/><use transform="matrix(0.06172839506172839,0,0,0.06172839506172839,18.456790123456788,0)" xlink:href="#bu"/><use transform="matrix(0.06172839506172839,0,0,0.06172839506172839,30.80246913580247,0)" xlink:href="#ba"/><use transform="matrix(0.06172839506172839,0,0,0.06172839506172839,43.148148148148145,0)" xlink:href="#bv"/><use transform="matrix(0.06172839506172839,0,0,0.06172839506172839,55.49382716049382,0)" xlink:href="#bu"/><use transform="matrix(0.06172839506172839,0,0,0.06172839506172839,67.8395061728395,0)" xlink:href="#bw"/><use transform="matrix(0.06172839506172839,0,0,0.06172839506172839,83.82716049382717,0)" xlink:href="#bx"/></g><path d="M115-194c53 0 69 39 70 98 0 66-23 100-70 100C84 3 66-7 56-30L54 0H23l1-261h32v101c10-23 28-34 59-34zm-8 174c40 0 45-34 45-75 0-40-5-75-45-74-42 0-51 32-51 76 0 43 10 73 51 73" id="by"/><path d="M135-143c-3-34-86-38-87 0 15 53 115 12 119 90S17 21 10-45l28-5c4 36 97 45 98 0-10-56-113-15-118-90-4-57 82-63 122-42 12 7 21 19 24 35" id="bz"/><g id="p"><use transform="matrix(0.06172839506172839,0,0,0.06172839506172839,0,0)" xlink:href="#bw"/><use transform="matrix(0.06172839506172839,0,0,0.06172839506172839,15.987654320987653,0)" xlink:href="#bd"/><use transform="matrix(0.06172839506172839,0,0,0.06172839506172839,28.333333333333332,0)" xlink:href="#bb"/><use transform="matrix(0.06172839506172839,0,0,0.06172839506172839,34.50617283950617,0)" xlink:href="#bd"/><use transform="matrix(0.06172839506172839,0,0,0.06172839506172839,46.85185185185185,0)" xlink:href="#by"/><use transform="matrix(0.06172839506172839,0,0,0.06172839506172839,59.197530864197525,0)" xlink:href="#bd"/><use transform="matrix(0.06172839506172839,0,0,0.06172839506172839,71.5432098765432,0)" xlink:href="#bz"/><use transform="matrix(0.06172839506172839,0,0,0.06172839506172839,82.65432098765432,0)" xlink:href="#aZ"/></g><path d="M85-194c31 0 48 13 60 33l-1-100h32l1 261h-30c-2-10 0-23-3-31C134-8 116 4 85 4 32 4 16-35 15-94c0-66 23-100 70-100zm9 24c-40 0-46 34-46 75 0 40 6 74 45 74 42 0 51-32 51-76 0-42-9-74-50-73" id="bA"/><g id="q"><use transform="matrix(0.06172839506172839,0,0,0.06172839506172839,0,0)" xlink:href="#bc"/><use transform="matrix(0.06172839506172839,0,0,0.06172839506172839,18.456790123456788,0)" xlink:href="#bu"/><use transform="matrix(0.06172839506172839,0,0,0.06172839506172839,30.80246913580247,0)" xlink:href="#ba"/><use transform="matrix(0.06172839506172839,0,0,0.06172839506172839,43.148148148148145,0)" xlink:href="#bv"/><use transform="matrix(0.06172839506172839,0,0,0.06172839506172839,55.49382716049382,0)" xlink:href="#bu"/><use transform="matrix(0.06172839506172839,0,0,0.06172839506172839,67.8395061728395,0)" xlink:href="#bA"/><use transform="matrix(0.06172839506172839,0,0,0.06172839506172839,80.18518518518519,0)" xlink:href="#by"/></g><g id="r"><use transform="matrix(0.06172839506172839,0,0,0.06172839506172839,0,0)" xlink:href="#bd"/><use transform="matrix(0.06172839506172839,0,0,0.06172839506172839,12.345679012345679,0)" xlink:href="#bb"/><use transform="matrix(0.06172839506172839,0,0,0.06172839506172839,18.51851851851852,0)" xlink:href="#aX"/><use transform="matrix(0.06172839506172839,0,0,0.06172839506172839,23.395061728395063,0)" xlink:href="#bd"/><use transform="matrix(0.06172839506172839,0,0,0.06172839506172839,35.74074074074074,0)" xlink:href="#bz"/></g><path d="M205 0l-28-72H64L36 0H1l101-248h38L239 0h-34zm-38-99l-47-123c-12 45-31 82-46 123h93" id="bB"/><g id="s"><use transform="matrix(0.06172839506172839,0,0,0.06172839506172839,0,0)" xlink:href="#bB"/><use transform="matrix(0.06172839506172839,0,0,0.06172839506172839,14.814814814814813,0)" xlink:href="#bA"/><use transform="matrix(0.06172839506172839,0,0,0.06172839506172839,27.160493827160494,0)" xlink:href="#bc"/><use transform="matrix(0.06172839506172839,0,0,0.06172839506172839,45.61728395061728,0)" xlink:href="#aY"/><use transform="matrix(0.06172839506172839,0,0,0.06172839506172839,50.49382716049382,0)" xlink:href="#ba"/></g><path d="M30 0v-248h33v221h125V0H30" id="bC"/><g id="t"><use transform="matrix(0.06172839506172839,0,0,0.06172839506172839,0,0)" xlink:href="#bC"/><use transform="matrix(0.06172839506172839,0,0,0.06172839506172839,12.345679012345679,0)" xlink:href="#bu"/><use transform="matrix(0.06172839506172839,0,0,0.06172839506172839,24.691358024691358,0)" xlink:href="#bv"/><use transform="matrix(0.06172839506172839,0,0,0.06172839506172839,37.03703703703704,0)" xlink:href="#aY"/><use transform="matrix(0.06172839506172839,0,0,0.06172839506172839,41.91358024691358,0)" xlink:href="#ba"/></g><path d="M232-93c-1 65-40 97-104 97C67 4 28-28 28-90v-158h33c8 89-33 224 67 224 102 0 64-133 71-224h33v155" id="bD"/><path d="M114-163C36-179 61-72 57 0H25l-1-190h30c1 12-1 29 2 39 6-27 23-49 58-41v29" id="bE"/><g id="u"><use transform="matrix(0.05,0,0,0.05,0,0)" xlink:href="#bD"/><use transform="matrix(0.05,0,0,0.05,12.950000000000001,0)" xlink:href="#ba"/><use transform="matrix(0.05,0,0,0.05,22.950000000000003,0)" xlink:href="#bE"/><use transform="matrix(0.05,0,0,0.05,28.900000000000002,0)" xlink:href="#aZ"/><use transform="matrix(0.05,0,0,0.05,38.900000000000006,0)" xlink:href="#bv"/><use transform="matrix(0.05,0,0,0.05,48.900000000000006,0)" xlink:href="#aY"/><use transform="matrix(0.05,0,0,0.05,52.85,0)" xlink:href="#bz"/><use transform="matrix(0.05,0,0,0.05,61.85,0)" xlink:href="#bb"/><use transform="matrix(0.05,0,0,0.05,66.85000000000001,0)" xlink:href="#aZ"/><use transform="matrix(0.05,0,0,0.05,76.85000000000001,0)" xlink:href="#bE"/><use transform="matrix(0.05,0,0,0.05,82.80000000000001,0)" xlink:href="#aZ"/><use transform="matrix(0.05,0,0,0.05,92.80000000000001,0)" xlink:href="#bA"/></g><path d="M84 4C-5 8 30-112 23-190h32v120c0 31 7 50 39 49 72-2 45-101 50-169h31l1 190h-30c-1-10 1-25-2-33-11 22-28 36-60 37" id="bF"/><g id="v"><use transform="matrix(0.05,0,0,0.05,0,0)" xlink:href="#bF"/><use transform="matrix(0.05,0,0,0.05,10,0)" xlink:href="#bz"/><use transform="matrix(0.05,0,0,0.05,19,0)" xlink:href="#aZ"/><use transform="matrix(0.05,0,0,0.05,29,0)" xlink:href="#bE"/><use transform="matrix(0.05,0,0,0.05,34.95,0)" xlink:href="#bz"/></g><g id="w"><use transform="matrix(0.05,0,0,0.05,0,0)" xlink:href="#aW"/><use transform="matrix(0.05,0,0,0.05,9,0)" xlink:href="#bd"/><use transform="matrix(0.05,0,0,0.05,19,0)" xlink:href="#ba"/></g><path d="M108 0H70L1-190h34L89-25l56-165h34" id="bG"/><path d="M206 0h-36l-40-164L89 0H53L-1-190h32L70-26l43-164h34l41 164 42-164h31" id="bH"/><g id="x"><use transform="matrix(0.05,0,0,0.05,0,0)" xlink:href="#bG"/><use transform="matrix(0.05,0,0,0.05,9,0)" xlink:href="#aY"/><use transform="matrix(0.05,0,0,0.05,12.949999999999998,0)" xlink:href="#aZ"/><use transform="matrix(0.05,0,0,0.05,22.95,0)" xlink:href="#bH"/></g><path d="M115-194c55 1 70 41 70 98S169 2 115 4C84 4 66-9 55-30l1 105H24l-1-265h31l2 30c10-21 28-34 59-34zm-8 174c40 0 45-34 45-75s-6-73-45-74c-42 0-51 32-51 76 0 43 10 73 51 73" id="bI"/><g id="y"><use transform="matrix(0.05,0,0,0.05,0,0)" xlink:href="#bI"/><use transform="matrix(0.05,0,0,0.05,10,0)" xlink:href="#bd"/><use transform="matrix(0.05,0,0,0.05,20,0)" xlink:href="#bv"/><use transform="matrix(0.05,0,0,0.05,30,0)" xlink:href="#aZ"/><use transform="matrix(0.05,0,0,0.05,40,0)" xlink:href="#bz"/></g><g id="z"><use transform="matrix(0.05,0,0,0.05,0,0)" xlink:href="#by"/><use transform="matrix(0.05,0,0,0.05,10,0)" xlink:href="#bF"/><use transform="matrix(0.05,0,0,0.05,20,0)" xlink:href="#bb"/></g><g id="A"><use transform="matrix(0.05,0,0,0.05,0,0)" xlink:href="#aW"/><use transform="matrix(0.05,0,0,0.05,9,0)" xlink:href="#bd"/><use transform="matrix(0.05,0,0,0.05,19,0)" xlink:href="#ba"/><use transform="matrix(0.05,0,0,0.05,29,0)" xlink:href="#ba"/><use transform="matrix(0.05,0,0,0.05,39,0)" xlink:href="#bu"/><use transform="matrix(0.05,0,0,0.05,49,0)" xlink:href="#bb"/></g><g id="B"><use transform="matrix(0.05,0,0,0.05,0,0)" xlink:href="#bd"/><use transform="matrix(0.05,0,0,0.05,10,0)" xlink:href="#aW"/><use transform="matrix(0.05,0,0,0.05,19,0)" xlink:href="#aW"/><use transform="matrix(0.05,0,0,0.05,28,0)" xlink:href="#aZ"/><use transform="matrix(0.05,0,0,0.05,38,0)" xlink:href="#bz"/><use transform="matrix(0.05,0,0,0.05,47,0)" xlink:href="#bz"/></g><path d="M143 0L79-87 56-68V0H24v-261h32v163l83-92h37l-77 82L181 0h-38" id="bJ"/><g id="C"><use transform="matrix(0.05,0,0,0.05,0,0)" xlink:href="#by"/><use transform="matrix(0.05,0,0,0.05,10,0)" xlink:href="#bu"/><use transform="matrix(0.05,0,0,0.05,20,0)" xlink:href="#bu"/><use transform="matrix(0.05,0,0,0.05,30,0)" xlink:href="#bJ"/><use transform="matrix(0.05,0,0,0.05,39,0)" xlink:href="#aY"/><use transform="matrix(0.05,0,0,0.05,42.95,0)" xlink:href="#ba"/><use transform="matrix(0.05,0,0,0.05,52.95,0)" xlink:href="#bv"/></g><path d="M101-234c-31-9-42 10-38 44h38v23H63V0H32v-167H5v-23h27c-7-52 17-82 69-68v24" id="bK"/><g id="D"><use transform="matrix(0.05,0,0,0.05,0,0)" xlink:href="#bK"/><use transform="matrix(0.05,0,0,0.05,5,0)" xlink:href="#bF"/><use transform="matrix(0.05,0,0,0.05,15,0)" xlink:href="#ba"/><use transform="matrix(0.05,0,0,0.05,25,0)" xlink:href="#aW"/><use transform="matrix(0.05,0,0,0.05,34,0)" xlink:href="#bb"/><use transform="matrix(0.05,0,0,0.05,39,0)" xlink:href="#aY"/><use transform="matrix(0.05,0,0,0.05,42.95,0)" xlink:href="#bu"/><use transform="matrix(0.05,0,0,0.05,52.95,0)" xlink:href="#ba"/></g><g id="E"><use transform="matrix(0.05,0,0,0.05,0,0)" xlink:href="#bA"/><use transform="matrix(0.05,0,0,0.05,10,0)" xlink:href="#bd"/><use transform="matrix(0.05,0,0,0.05,20,0)" xlink:href="#bb"/><use transform="matrix(0.05,0,0,0.05,25,0)" xlink:href="#bd"/></g><g id="F"><use transform="matrix(0.05,0,0,0.05,0,0)" xlink:href="#bz"/><use transform="matrix(0.05,0,0,0.05,9,0)" xlink:href="#aZ"/><use transform="matrix(0.05,0,0,0.05,19,0)" xlink:href="#ba"/><use transform="matrix(0.05,0,0,0.05,29,0)" xlink:href="#bb"/></g><g id="G"><use transform="matrix(0.05,0,0,0.05,0,0)" xlink:href="#by"/><use transform="matrix(0.05,0,0,0.05,10,0)" xlink:href="#bd"/><use transform="matrix(0.05,0,0,0.05,20,0)" xlink:href="#aW"/><use transform="matrix(0.05,0,0,0.05,29,0)" xlink:href="#bJ"/></g><g id="H"><use transform="matrix(0.05,0,0,0.05,0,0)" xlink:href="#bb"/><use transform="matrix(0.05,0,0,0.05,5,0)" xlink:href="#bu"/></g><g id="I"><use transform="matrix(0.05,0,0,0.05,0,0)" xlink:href="#bF"/><use transform="matrix(0.05,0,0,0.05,10,0)" xlink:href="#bz"/><use transform="matrix(0.05,0,0,0.05,19,0)" xlink:href="#aZ"/><use transform="matrix(0.05,0,0,0.05,29,0)" xlink:href="#bE"/><use transform="matrix(0.05,0,0,0.05,34.95,0)" xlink:href="#bz"/></g><path fill="#5a6c86" d="M30-248c118-7 216 8 213 122C240-48 200 0 122 0H30v-248zM63-27c89 8 146-16 146-99s-60-101-146-95v194" id="bL"/><path fill="#5a6c86" d="M141-36C126-15 110 5 73 4 37 3 15-17 15-53c-1-64 63-63 125-63 3-35-9-54-41-54-24 1-41 7-42 31l-33-3c5-37 33-52 76-52 45 0 72 20 72 64v82c-1 20 7 32 28 27v20c-31 9-61-2-59-35zM48-53c0 20 12 33 32 33 41-3 63-29 60-74-43 2-92-5-92 41" id="bM"/><path fill="#5a6c86" d="M59-47c-2 24 18 29 38 22v24C64 9 27 4 27-40v-127H5v-23h24l9-43h21v43h35v23H59v120" id="bN"/><g id="J"><use transform="matrix(0.06172839506172839,0,0,0.06172839506172839,0,0)" xlink:href="#bL"/><use transform="matrix(0.06172839506172839,0,0,0.06172839506172839,15.987654320987653,0)" xlink:href="#bM"/><use transform="matrix(0.06172839506172839,0,0,0.06172839506172839,28.333333333333332,0)" xlink:href="#bN"/><use transform="matrix(0.06172839506172839,0,0,0.06172839506172839,34.50617283950617,0)" xlink:href="#bM"/></g><g id="K"><use transform="matrix(0.06172839506172839,0,0,0.06172839506172839,0,0)" xlink:href="#aW"/><use transform="matrix(0.06172839506172839,0,0,0.06172839506172839,11.11111111111111,0)" xlink:href="#be"/><use transform="matrix(0.06172839506172839,0,0,0.06172839506172839,23.45679012345679,0)" xlink:href="#aZ"/><use transform="matrix(0.06172839506172839,0,0,0.06172839506172839,35.80246913580247,0)" xlink:href="#aW"/><use transform="matrix(0.06172839506172839,0,0,0.06172839506172839,46.91358024691358,0)" xlink:href="#bJ"/></g><path d="M153-248C145-148 188 4 80 4 36 3 13-21 6-62l32-5c4 25 16 42 43 43 27 0 39-20 39-49v-147H72v-28h81" id="bO"/><path d="M266 0h-40l-56-210L115 0H75L2-248h35L96-30l15-64 43-154h32l59 218 59-218h35" id="bP"/><path d="M127-220V0H93v-220H8v-28h204v28h-85" id="bQ"/><g id="L"><use transform="matrix(0.06172839506172839,0,0,0.06172839506172839,0,0)" xlink:href="#bO"/><use transform="matrix(0.06172839506172839,0,0,0.06172839506172839,11.11111111111111,0)" xlink:href="#bP"/><use transform="matrix(0.06172839506172839,0,0,0.06172839506172839,32.03703703703704,0)" xlink:href="#bQ"/></g><g id="M"><use transform="matrix(0.06172839506172839,0,0,0.06172839506172839,0,0)" xlink:href="#bb"/><use transform="matrix(0.06172839506172839,0,0,0.06172839506172839,6.172839506172839,0)" xlink:href="#bu"/><use transform="matrix(0.06172839506172839,0,0,0.06172839506172839,18.51851851851852,0)" xlink:href="#bJ"/><use transform="matrix(0.06172839506172839,0,0,0.06172839506172839,29.62962962962963,0)" xlink:href="#aZ"/><use transform="matrix(0.06172839506172839,0,0,0.06172839506172839,41.97530864197531,0)" xlink:href="#ba"/></g><g id="N"><use transform="matrix(0.05,0,0,0.05,0,0)" xlink:href="#bA"/><use transform="matrix(0.05,0,0,0.05,10,0)" xlink:href="#bd"/><use transform="matrix(0.05,0,0,0.05,20,0)" xlink:href="#bb"/><use transform="matrix(0.05,0,0,0.05,25,0)" xlink:href="#bd"/></g><g id="O"><use transform="matrix(0.05,0,0,0.05,0,0)" xlink:href="#bz"/><use transform="matrix(0.05,0,0,0.05,9,0)" xlink:href="#aZ"/><use transform="matrix(0.05,0,0,0.05,19,0)" xlink:href="#ba"/><use transform="matrix(0.05,0,0,0.05,29,0)" xlink:href="#bb"/></g><g id="P"><use transform="matrix(0.05,0,0,0.05,0,0)" xlink:href="#by"/><use transform="matrix(0.05,0,0,0.05,10,0)" xlink:href="#bd"/><use transform="matrix(0.05,0,0,0.05,20,0)" xlink:href="#aW"/><use transform="matrix(0.05,0,0,0.05,29,0)" xlink:href="#bJ"/></g><g id="Q"><use transform="matrix(0.05,0,0,0.05,0,0)" xlink:href="#bb"/><use transform="matrix(0.05,0,0,0.05,5,0)" xlink:href="#bu"/></g><g id="R"><use transform="matrix(0.05,0,0,0.05,0,0)" xlink:href="#bF"/><use transform="matrix(0.05,0,0,0.05,10,0)" xlink:href="#bz"/><use transform="matrix(0.05,0,0,0.05,19,0)" xlink:href="#aZ"/><use transform="matrix(0.05,0,0,0.05,29,0)" xlink:href="#bE"/><use transform="matrix(0.05,0,0,0.05,34.95,0)" xlink:href="#bz"/></g><g id="S"><use transform="matrix(0.05,0,0,0.05,0,0)" xlink:href="#bH"/><use transform="matrix(0.05,0,0,0.05,12.950000000000001,0)" xlink:href="#be"/><use transform="matrix(0.05,0,0,0.05,22.950000000000003,0)" xlink:href="#aZ"/><use transform="matrix(0.05,0,0,0.05,32.95,0)" xlink:href="#ba"/></g><g id="T"><use transform="matrix(0.05,0,0,0.05,0,0)" xlink:href="#bF"/><use transform="matrix(0.05,0,0,0.05,10,0)" xlink:href="#bz"/><use transform="matrix(0.05,0,0,0.05,19,0)" xlink:href="#aZ"/><use transform="matrix(0.05,0,0,0.05,29,0)" xlink:href="#bE"/></g><g id="U"><use transform="matrix(0.05,0,0,0.05,0,0)" xlink:href="#bd"/><use transform="matrix(0.05,0,0,0.05,10,0)" xlink:href="#bF"/><use transform="matrix(0.05,0,0,0.05,20,0)" xlink:href="#bb"/><use transform="matrix(0.05,0,0,0.05,25,0)" xlink:href="#be"/><use transform="matrix(0.05,0,0,0.05,35,0)" xlink:href="#aZ"/><use transform="matrix(0.05,0,0,0.05,45,0)" xlink:href="#ba"/><use transform="matrix(0.05,0,0,0.05,55,0)" xlink:href="#bb"/><use transform="matrix(0.05,0,0,0.05,60,0)" xlink:href="#aY"/><use transform="matrix(0.05,0,0,0.05,63.95,0)" xlink:href="#aW"/><use transform="matrix(0.05,0,0,0.05,72.95,0)" xlink:href="#bd"/><use transform="matrix(0.05,0,0,0.05,82.95,0)" xlink:href="#bb"/><use transform="matrix(0.05,0,0,0.05,87.95,0)" xlink:href="#aZ"/><use transform="matrix(0.05,0,0,0.05,97.95,0)" xlink:href="#bA"/></g><path d="M140-251c81 0 123 46 123 126C263-46 219 4 140 4 59 4 17-45 17-125s42-126 123-126zm0 227c63 0 89-41 89-101s-29-99-89-99c-61 0-89 39-89 99S79-25 140-24" id="bR"/><g id="V"><use transform="matrix(0.05,0,0,0.05,0,0)" xlink:href="#bR"/><use transform="matrix(0.05,0,0,0.05,14,0)" xlink:href="#ba"/><use transform="matrix(0.05,0,0,0.05,24,0)" xlink:href="#aW"/><use transform="matrix(0.05,0,0,0.05,33,0)" xlink:href="#aZ"/></g><g id="W"><use transform="matrix(0.05,0,0,0.05,0,0)" xlink:href="#bF"/><use transform="matrix(0.05,0,0,0.05,10,0)" xlink:href="#bz"/><use transform="matrix(0.05,0,0,0.05,19,0)" xlink:href="#aZ"/><use transform="matrix(0.05,0,0,0.05,29,0)" xlink:href="#bE"/></g><g id="X"><use transform="matrix(0.05,0,0,0.05,0,0)" xlink:href="#aY"/><use transform="matrix(0.05,0,0,0.05,3.95,0)" xlink:href="#bz"/></g><path d="M68-38c1 34 0 65-14 84H32c9-13 17-26 17-46H33v-38h35" id="bS"/><g id="Y"><use transform="matrix(0.05,0,0,0.05,0,0)" xlink:href="#bd"/><use transform="matrix(0.05,0,0,0.05,10,0)" xlink:href="#bF"/><use transform="matrix(0.05,0,0,0.05,20,0)" xlink:href="#bb"/><use transform="matrix(0.05,0,0,0.05,25,0)" xlink:href="#be"/><use transform="matrix(0.05,0,0,0.05,35,0)" xlink:href="#aZ"/><use transform="matrix(0.05,0,0,0.05,45,0)" xlink:href="#ba"/><use transform="matrix(0.05,0,0,0.05,55,0)" xlink:href="#bb"/><use transform="matrix(0.05,0,0,0.05,60,0)" xlink:href="#aY"/><use transform="matrix(0.05,0,0,0.05,63.95,0)" xlink:href="#aW"/><use transform="matrix(0.05,0,0,0.05,72.95,0)" xlink:href="#bd"/><use transform="matrix(0.05,0,0,0.05,82.95,0)" xlink:href="#bb"/><use transform="matrix(0.05,0,0,0.05,87.95,0)" xlink:href="#aZ"/><use transform="matrix(0.05,0,0,0.05,97.95,0)" xlink:href="#bA"/><use transform="matrix(0.05,0,0,0.05,107.95,0)" xlink:href="#bS"/></g><path d="M179-190L93 31C79 59 56 82 12 73V49c39 6 53-20 64-50L1-190h34L92-34l54-156h33" id="bT"/><g id="Z"><use transform="matrix(0.05,0,0,0.05,0,0)" xlink:href="#bb"/><use transform="matrix(0.05,0,0,0.05,5,0)" xlink:href="#be"/><use transform="matrix(0.05,0,0,0.05,15,0)" xlink:href="#aZ"/><use transform="matrix(0.05,0,0,0.05,25,0)" xlink:href="#bT"/></g><g id="aa"><use transform="matrix(0.05,0,0,0.05,0,0)" xlink:href="#aW"/><use transform="matrix(0.05,0,0,0.05,9,0)" xlink:href="#bd"/><use transform="matrix(0.05,0,0,0.05,19,0)" xlink:href="#ba"/></g><g id="ab"><use transform="matrix(0.05,0,0,0.05,0,0)" xlink:href="#bK"/><use transform="matrix(0.05,0,0,0.05,5,0)" xlink:href="#bF"/><use transform="matrix(0.05,0,0,0.05,15,0)" xlink:href="#aX"/><use transform="matrix(0.05,0,0,0.05,18.95,0)" xlink:href="#aX"/><use transform="matrix(0.05,0,0,0.05,22.9,0)" xlink:href="#bT"/></g><g id="ac"><use transform="matrix(0.05,0,0,0.05,0,0)" xlink:href="#bd"/><use transform="matrix(0.05,0,0,0.05,10,0)" xlink:href="#aW"/><use transform="matrix(0.05,0,0,0.05,19,0)" xlink:href="#aW"/><use transform="matrix(0.05,0,0,0.05,28,0)" xlink:href="#aZ"/><use transform="matrix(0.05,0,0,0.05,38,0)" xlink:href="#bz"/><use transform="matrix(0.05,0,0,0.05,47,0)" xlink:href="#bz"/></g><g id="ad"><use transform="matrix(0.05,0,0,0.05,0,0)" xlink:href="#bb"/><use transform="matrix(0.05,0,0,0.05,5,0)" xlink:href="#be"/><use transform="matrix(0.05,0,0,0.05,15,0)" xlink:href="#aZ"/></g><path d="M212-179c-10-28-35-45-73-45-59 0-87 40-87 99 0 60 29 101 89 101 43 0 62-24 78-52l27 14C228-24 195 4 139 4 59 4 22-46 18-125c-6-104 99-153 187-111 19 9 31 26 39 46" id="bU"/><path d="M233-177c-1 41-23 64-60 70L243 0h-38l-65-103H63V0H30v-248c88 3 205-21 203 71zM63-129c60-2 137 13 137-47 0-61-80-42-137-45v92" id="bV"/><g id="ae"><use transform="matrix(0.05,0,0,0.05,0,0)" xlink:href="#bU"/><use transform="matrix(0.05,0,0,0.05,12.950000000000001,0)" xlink:href="#bV"/><use transform="matrix(0.05,0,0,0.05,25.900000000000002,0)" xlink:href="#bD"/><use transform="matrix(0.05,0,0,0.05,38.85,0)" xlink:href="#bw"/></g><g id="af"><use transform="matrix(0.05,0,0,0.05,0,0)" xlink:href="#bK"/><use transform="matrix(0.05,0,0,0.05,5,0)" xlink:href="#bF"/><use transform="matrix(0.05,0,0,0.05,15,0)" xlink:href="#ba"/><use transform="matrix(0.05,0,0,0.05,25,0)" xlink:href="#aW"/><use transform="matrix(0.05,0,0,0.05,34,0)" xlink:href="#bb"/><use transform="matrix(0.05,0,0,0.05,39,0)" xlink:href="#aY"/><use transform="matrix(0.05,0,0,0.05,42.95,0)" xlink:href="#bu"/><use transform="matrix(0.05,0,0,0.05,52.95,0)" xlink:href="#ba"/></g><g id="ag"><use transform="matrix(0.06172839506172839,0,0,0.06172839506172839,0,0)" xlink:href="#bC"/><use transform="matrix(0.06172839506172839,0,0,0.06172839506172839,12.345679012345679,0)" xlink:href="#bu"/><use transform="matrix(0.06172839506172839,0,0,0.06172839506172839,24.691358024691358,0)" xlink:href="#bv"/><use transform="matrix(0.06172839506172839,0,0,0.06172839506172839,37.03703703703704,0)" xlink:href="#aY"/><use transform="matrix(0.06172839506172839,0,0,0.06172839506172839,41.91358024691358,0)" xlink:href="#ba"/></g><g id="ah"><use transform="matrix(0.05,0,0,0.05,0,0)" xlink:href="#by"/><use transform="matrix(0.05,0,0,0.05,10,0)" xlink:href="#aZ"/><use transform="matrix(0.05,0,0,0.05,20,0)" xlink:href="#aZ"/><use transform="matrix(0.05,0,0,0.05,30,0)" xlink:href="#ba"/></g><g id="ai"><use transform="matrix(0.05,0,0,0.05,0,0)" xlink:href="#by"/><use transform="matrix(0.05,0,0,0.05,10,0)" xlink:href="#bu"/><use transform="matrix(0.05,0,0,0.05,20,0)" xlink:href="#bu"/><use transform="matrix(0.05,0,0,0.05,30,0)" xlink:href="#bJ"/></g><use transform="matrix(0.05,0,0,0.05,0,0)" xlink:href="#bd" id="aj"/><g id="ak"><use transform="matrix(0.05,0,0,0.05,0,0)" xlink:href="#bA"/><use transform="matrix(0.05,0,0,0.05,10,0)" xlink:href="#bu"/><use transform="matrix(0.05,0,0,0.05,20,0)" xlink:href="#aW"/><use transform="matrix(0.05,0,0,0.05,29,0)" xlink:href="#bb"/><use transform="matrix(0.05,0,0,0.05,34,0)" xlink:href="#bu"/><use transform="matrix(0.05,0,0,0.05,44,0)" xlink:href="#bE"/></g><g id="al"><use transform="matrix(0.05,0,0,0.05,0,0)" xlink:href="#bd"/><use transform="matrix(0.05,0,0,0.05,10,0)" xlink:href="#ba"/><use transform="matrix(0.05,0,0,0.05,20,0)" xlink:href="#bA"/></g><g id="am"><use transform="matrix(0.05,0,0,0.05,0,0)" xlink:href="#bG"/><use transform="matrix(0.05,0,0,0.05,9,0)" xlink:href="#aY"/><use transform="matrix(0.05,0,0,0.05,12.949999999999998,0)" xlink:href="#aZ"/><use transform="matrix(0.05,0,0,0.05,22.95,0)" xlink:href="#bH"/></g><g id="an"><use transform="matrix(0.05,0,0,0.05,0,0)" xlink:href="#bb"/><use transform="matrix(0.05,0,0,0.05,5,0)" xlink:href="#be"/><use transform="matrix(0.05,0,0,0.05,15,0)" xlink:href="#aZ"/><use transform="matrix(0.05,0,0,0.05,25,0)" xlink:href="#aY"/><use transform="matrix(0.05,0,0,0.05,28.950000000000003,0)" xlink:href="#bE"/></g><g id="ao"><use transform="matrix(0.05,0,0,0.05,0,0)" xlink:href="#by"/><use transform="matrix(0.05,0,0,0.05,10,0)" xlink:href="#bu"/><use transform="matrix(0.05,0,0,0.05,20,0)" xlink:href="#bu"/><use transform="matrix(0.05,0,0,0.05,30,0)" xlink:href="#bJ"/><use transform="matrix(0.05,0,0,0.05,39,0)" xlink:href="#aY"/><use transform="matrix(0.05,0,0,0.05,42.95,0)" xlink:href="#ba"/><use transform="matrix(0.05,0,0,0.05,52.95,0)" xlink:href="#bv"/></g><path fill="#666" d="M30-248c87 1 191-15 191 75 0 78-77 80-158 76V0H30v-248zm33 125c57 0 124 11 124-50 0-59-68-47-124-48v98" id="bW"/><path fill="#666" d="M96-169c-40 0-48 33-48 73s9 75 48 75c24 0 41-14 43-38l32 2c-6 37-31 61-74 61-59 0-76-41-82-99-10-93 101-131 147-64 4 7 5 14 7 22l-32 3c-4-21-16-35-41-35" id="bX"/><path fill="#666" d="M84 4C-5 8 30-112 23-190h32v120c0 31 7 50 39 49 72-2 45-101 50-169h31l1 190h-30c-1-10 1-25-2-33-11 22-28 36-60 37" id="bY"/><g id="ap"><use transform="matrix(0.06172839506172839,0,0,0.06172839506172839,0,0)" xlink:href="#bW"/><use transform="matrix(0.06172839506172839,0,0,0.06172839506172839,14.814814814814813,0)" xlink:href="#bs"/><use transform="matrix(0.06172839506172839,0,0,0.06172839506172839,19.691358024691354,0)" xlink:href="#bX"/><use transform="matrix(0.06172839506172839,0,0,0.06172839506172839,30.802469135802465,0)" xlink:href="#aF"/><use transform="matrix(0.06172839506172839,0,0,0.06172839506172839,36.9753086419753,0)" xlink:href="#bY"/><use transform="matrix(0.06172839506172839,0,0,0.06172839506172839,49.32098765432098,0)" xlink:href="#aH"/><use transform="matrix(0.06172839506172839,0,0,0.06172839506172839,56.66666666666666,0)" xlink:href="#aG"/><use transform="matrix(0.06172839506172839,0,0,0.06172839506172839,69.01234567901234,0)" xlink:href="#aM"/></g><path d="M185-189c-5-48-123-54-124 2 14 75 158 14 163 119 3 78-121 87-175 55-17-10-28-26-33-46l33-7c5 56 141 63 141-1 0-78-155-14-162-118-5-82 145-84 179-34 5 7 8 16 11 25" id="bZ"/><path d="M126-127c33 6 58 20 58 59 0 88-139 92-164 29-3-8-5-16-6-25l32-3c6 27 21 44 54 44 32 0 52-15 52-46 0-38-36-46-79-43v-28c39 1 72-4 72-42 0-27-17-43-46-43-28 0-47 15-49 41l-32-3c6-42 35-63 81-64 48-1 79 21 79 65 0 36-21 52-52 59" id="ca"/><g id="aq"><use transform="matrix(0.05,0,0,0.05,0,0)" xlink:href="#bZ"/><use transform="matrix(0.05,0,0,0.05,12,0)" xlink:href="#ca"/></g><g id="ar"><use transform="matrix(0.05,0,0,0.05,0,0)" xlink:href="#bx"/><use transform="matrix(0.05,0,0,0.05,12,0)" xlink:href="#bF"/><use transform="matrix(0.05,0,0,0.05,22,0)" xlink:href="#aW"/><use transform="matrix(0.05,0,0,0.05,31,0)" xlink:href="#bJ"/><use transform="matrix(0.05,0,0,0.05,40,0)" xlink:href="#aZ"/><use transform="matrix(0.05,0,0,0.05,50,0)" xlink:href="#bb"/></g><path d="M30-248c87 1 191-15 191 75 0 78-77 80-158 76V0H30v-248zm33 125c57 0 124 11 124-50 0-59-68-47-124-48v98" id="cb"/><path d="M33 0v-248h34V0H33" id="cc"/><g id="as"><use transform="matrix(0.05,0,0,0.05,0,0)" xlink:href="#bB"/><use transform="matrix(0.05,0,0,0.05,12,0)" xlink:href="#cb"/><use transform="matrix(0.05,0,0,0.05,24,0)" xlink:href="#cc"/></g></defs></g></svg>